<?xml version="1.0" encoding="UTF-8"?><svg id="_5" xmlns="http://www.w3.org/2000/svg" viewBox="0 0 141.73 141.73"><defs><style>.cls-1{fill:#fff;}</style></defs><path class="cls-1" d="M71.09,29.46c11.53,0,20.85,8.71,20.85,18.64,0,1.77,0,3.12-.5,4.39,3.61-2.62,8.5-3.96,13.81-3.96,11.96,0,21.74,8.42,21.74,18.62s-9.77,19.12-21.74,19.12h-2.69v49.21c0,.5-.42,.5-.85,.5H38.13c-.42,0-.85,0-.85-.5v-49.21h-.92c-12.39,0-22.24-8.43-22.24-19.12s9.84-18.62,22.24-18.62c4.46,0,8.43,1.34,12.04,3.11,0-1.34-.5-2.19-.5-3.54,0-10.2,9.77-18.62,22.23-18.62,.32-.01,.64-.02,.95-.02m14.2,99.85h2.19c.85,0,1.77-.43,1.77-1.35v-36.82c0-.92-.92-1.34-1.77-1.34h-2.19c-.92,0-1.35,.42-1.35,1.34v36.82c0,.92,.43,1.35,1.35,1.35m-15.58,0h2.2c.92,0,1.34-.43,1.34-1.35v-36.82c0-.92-.42-1.34-1.34-1.34h-2.2c-.92,0-1.77,.42-1.77,1.34v36.82c0,.92,.85,1.35,1.77,1.35m-16,0h2.19c.92,0,1.35-.43,1.35-1.35v-36.82c0-.92-.43-1.34-1.35-1.34h-2.19c-.92,0-1.77,.42-1.77,1.34v36.82c0,.92,.85,1.35,1.77,1.35M71.09,24.46c-.35,0-.7,0-1.06,.02-13.51,.04-24.74,8.67-26.79,19.91-2.31-.58-4.58-.86-6.88-.86-15.02,0-27.24,10.6-27.24,23.62,0,12.29,9.89,22.17,23.16,23.86v44.47c0,2.73,2.01,5.5,5.85,5.5h63.58c3.84,0,5.85-2.77,5.85-5.5v-44.3c13.67-1.06,24.43-11.43,24.43-24.03s-11.99-23.62-26.74-23.62c-3.05,0-5.94,.37-8.61,1.1-1.9-11.24-12.84-20.16-25.56-20.16h0Z"/></svg>