<?xml version="1.0" encoding="UTF-8"?><svg id="_5" xmlns="http://www.w3.org/2000/svg" viewBox="0 0 141.73 141.73"><defs><style>.cls-1{fill:#fff;}</style></defs><path class="cls-1" d="M102.7,21.11c.24,0,.46,.03,.68,.09,1.36,.43,2.68,3.57,1.79,5.78-.89,2.28-6.28,3.57-8.96,4.93-8.96,4.5-17.49,11.64-21.06,21.06,6.25-1.36,9.39-3.57,16.6-3.57,8.5,.43,15.64,4.93,20.6,9.85l.43,.43c1.36,.86,2.25,2.21,3.14,3.57,2.25,4,3.14,9.43,3.14,15.21,0,10.28-2.68,21.49-5.39,29.06-2.68,6.28-4.93,11.64-8.93,16.57-3.91,5.63-10.28,10.8-17.94,10.8-.3,0-.6,0-.9-.02-2.22,0-4.93-.5-7.6-1.78-1.32-.93-2.68-1.86-4.03-3.14-.89-.43-2.25-.93-3.57-.93-.2-.03-.39-.04-.59-.04-2.9,0-5.41,2.84-7.48,4.11-2.66,1.21-5.26,1.75-7.75,1.75-7.62,0-14.21-4.99-18.24-10.74-3.61-4.93-6.75-10.29-9-16.57-4.46-12.5-9.39-34.42-1.78-45.2,4.5-5.78,12.99-12.5,23.31-12.92,7.17,0,10.75,2.21,17.92,4,4.93-14.78,16.14-23.28,30.03-29.99,1.57-.82,3.86-2.3,5.61-2.3m-24.42,79.7h.43c3.6-1.29,7.17-9.35,4.96-12.92-.46,0-.46-.5-.93-.5h-.43c-3.14,.93-5.35,4.93-5.86,8.5,0,2.28,0,4.07,1.82,4.93m-15.41,.06c.2,0,.4-.02,.6-.06,1.82-.43,2.28-3.14,1.82-5.35-.4-3.04-3.05-8.06-6.03-8.06-.52,0-1.04,.15-1.57,.49-3,3.82,.94,12.99,5.19,12.99M102.7,16.49c-2.61,0-4.99,1.31-6.9,2.37-.3,.16-.58,.32-.84,.45-10.87,5.25-23.99,13.24-30.69,28.5-.62-.19-1.22-.38-1.81-.57-3.97-1.27-7.71-2.46-13.31-2.46-11.88,.49-21.68,7.92-26.96,14.71-10.26,14.53-1.76,41.63,1.08,49.59,2.17,6.06,5.32,11.86,9.62,17.74,5.53,7.88,13.76,12.64,21.97,12.64,3.27,0,6.52-.73,9.67-2.17l.25-.12,.24-.15c.81-.49,1.56-1.08,2.28-1.64,.78-.61,2.24-1.74,2.8-1.79l.31,.04h.27c.2,0,.58,.08,1.03,.24,1.29,1.14,2.54,2.02,3.67,2.81l.25,.18,.31,.22,.35,.17c2.97,1.42,6.33,2.22,9.48,2.24,.34,.02,.69,.02,1.03,.02,8.12,0,16-4.61,21.64-12.65,4.28-5.32,6.64-10.85,9.36-17.25l.12-.29,.05-.12,.05-.13c1.33-3.71,5.66-16.86,5.66-30.62,0-7.19-1.26-13.07-3.74-17.48l-.08-.14-.09-.13c-.96-1.46-2.13-3.25-4.04-4.61l-.12-.12c-6.86-6.81-15.25-10.78-23.64-11.2h-.23c-2.44,0-4.49,.22-6.32,.57,4.26-4.52,9.41-7.58,12.86-9.31,.58-.3,1.48-.64,2.43-1.01,3.46-1.34,7.39-2.85,8.76-6.37,.94-2.32,.79-5.25-.41-7.79-.97-2.07-2.5-3.51-4.29-4.08-.75-.21-1.4-.3-2.07-.3h0Z"/></svg>