<?xml version="1.0" encoding="UTF-8"?><svg id="_5" xmlns="http://www.w3.org/2000/svg" viewBox="0 0 141.73 141.73"><defs><style>.cls-1,.cls-2{fill:#fff;}.cls-2{fill-rule:evenodd;}</style></defs><path class="cls-2" d="M62.21,30.12c-.59-7.32-2.26-12.47-7.42-15.28-3.39-2.26-8.5-2.26-14.2-2.8-5.65-.63-11.3-.63-16.46-1.18h-3.39c0,1.18,.59,2.26,0,3.34v3.44c4.57,.54,10.22,.54,15.33,1.17,4.52,0,11.35,0,14.2,1.09,3.98,1.72,4.52,5.7,4.52,10.22h-18.17v109.42H107.6V30.12H62.21Zm40.24,104.27H41.77V35.19h14.16c1.12,9.14,2.3,18.18,3.39,27.22h-.42c.07,.04,.14,.07,.2,.11,.03,0,.06-.02,.09-.02,1.9,.1,3.8-.11,5.69-.36,.42-.06,.84-.11,1.26-.17-1.16-8.9-2.27-17.8-3.38-26.79h39.7v99.2Z"/><path class="cls-1" d="M91.49,67.07v56.49H52.85v-56.49h38.64m4.62-4.62H48.23v65.73h47.88V62.45h0Z"/></svg>