<?xml version="1.0" encoding="UTF-8"?><svg id="_5" xmlns="http://www.w3.org/2000/svg" viewBox="0 0 141.73 141.73"><defs><style>.cls-1{fill:#fff;}</style></defs><path class="cls-1" d="M36.66,31.14c1.44,0,3.17,1.7,3.59,3.76l15.35,42.66s0,.95,1.03,.95h73.52c2.93,0,4.43,2.53,3.48,4.99l-19.9,46.14c-.99,2.93-4.95,5.46-7.95,5.46H38.28c-3.48,0-6.96-2.53-8.47-5.46L9.94,83.5c-.99-2.45,.48-4.99,3.96-4.99h21.84c.56,0,0-.47,0-.47L8.95,56.75c-1.5-2.53-1.5-4.99,0-6.02,.46-.3,1.02-.46,1.64-.46,1.35,0,2.95,.75,4.34,2.43l29.76,25.33s0,.47,.51,.47h2.5c.47,0,.47-.95,.47-.95l-14.41-40.2c-.99-2.93,0-5.46,1.98-5.94,.28-.19,.59-.28,.92-.28m0-4.62c-.96,0-1.88,.21-2.73,.62-1.72,.61-3.15,1.83-4.08,3.5-1.28,2.31-1.45,5.3-.47,8.19l10.37,28.93-21.55-18.34c-2.12-2.4-4.87-3.77-7.61-3.77-1.5,0-2.94,.41-4.15,1.19-3.7,2.53-4.26,7.54-1.47,12.26l.43,.73,.67,.53,17.02,13.52H13.9c-3.21,0-5.96,1.34-7.54,3.69-1.48,2.2-1.75,5.06-.7,7.65l19.91,46.24,.06,.14,.07,.14c2.41,4.69,7.58,7.97,12.58,7.97H105.78c5.03,0,10.59-3.82,12.26-8.39l19.84-46c1.08-2.79,.78-5.68-.75-7.9-1.54-2.25-4.09-3.54-6.98-3.54H59.2l-14.5-40.28c-.98-4-4.45-7.08-8.04-7.08h0Z"/></svg>