<?xml version="1.0" encoding="UTF-8"?><svg id="_5" xmlns="http://www.w3.org/2000/svg" viewBox="0 0 141.73 141.73"><defs><style>.cls-1{fill:#fff;}</style></defs><path class="cls-1" d="M71.02,46.25c4.95,0,8.9,3.96,8.9,8.86,0,2.53-.95,4.98-2.93,6.49,26.83,3.48,47.17,26.27,47.17,55.08v4.43H17.88c0-1.51-.48-3.01-.48-4.43,0-28.81,20.81-52.07,47.64-55.08-1.98-1.51-2.97-3.96-2.97-6.49,0-4.91,4-8.86,8.95-8.86m63.07,77.87v11.4H7.95v-11.4h126.15M71.02,41.63c-7.48,0-13.57,6.05-13.57,13.49,0,1.06,.11,2.08,.33,3.07-26.08,6.16-45.01,30.18-45.01,58.5,0,1.04,.15,1.98,.28,2.82H3.33v20.64H138.72v-20.64h-9.93v-2.82c0-28.39-18.39-51.97-44.58-58.43,.23-1.01,.34-2.06,.34-3.14,0-7.44-6.07-13.49-13.52-13.49h0Z"/></svg>