<?xml version="1.0" encoding="UTF-8"?><svg id="Graphic_Elements" xmlns="http://www.w3.org/2000/svg" viewBox="0 0 113.39 113.39"><defs><style>.cls-1{fill:#627428;}</style></defs><path class="cls-1" d="M83.69,36.5c-.63-1.61-1.37-2.76-2.58-3.96-1.21-1.21-2.35-1.95-3.96-2.58-1.21-.47-3.04-1.03-6.4-1.19-3.64-.17-4.73-.2-13.93-.2s-10.29,.04-13.93,.2c-3.36,.15-5.19,.71-6.4,1.19-1.61,.63-2.76,1.37-3.96,2.58-1.21,1.21-1.95,2.35-2.58,3.96-.47,1.21-1.03,3.04-1.19,6.4-.17,3.64-.2,4.73-.2,13.93s.04,10.29,.2,13.93c.15,3.36,.71,5.19,1.19,6.4,.63,1.61,1.37,2.76,2.58,3.96s2.35,1.95,3.96,2.58c1.21,.47,3.04,1.03,6.4,1.19,3.63,.17,4.72,.2,13.93,.2s10.3-.04,13.93-.2c3.36-.15,5.19-.71,6.4-1.19,1.61-.63,2.76-1.37,3.96-2.58,1.21-1.21,1.95-2.35,2.58-3.96,.47-1.21,1.03-3.04,1.19-6.4,.17-3.64,.2-4.73,.2-13.93s-.04-10.29-.2-13.93c-.15-3.36-.71-5.19-1.19-6.4Zm-26.87,38.03c-9.78,0-17.7-7.93-17.7-17.7s7.93-17.7,17.7-17.7,17.7,7.93,17.7,17.7-7.93,17.7-17.7,17.7Zm18.4-31.97c-2.28,0-4.14-1.85-4.14-4.14s1.85-4.14,4.14-4.14,4.14,1.85,4.14,4.14-1.85,4.14-4.14,4.14Z"/><circle class="cls-1" cx="56.82" cy="56.83" r="11.49"/><path class="cls-1" d="M56.82,2.08C26.59,2.08,2.09,26.59,2.09,56.81s24.5,54.73,54.73,54.73,54.73-24.5,54.73-54.73S87.05,2.08,56.82,2.08Zm34.27,68.96c-.17,3.67-.75,6.18-1.6,8.37-.88,2.27-2.06,4.19-3.98,6.11s-3.84,3.1-6.11,3.98c-2.19,.85-4.7,1.43-8.37,1.6-3.68,.17-4.85,.21-14.21,.21s-10.54-.04-14.21-.21c-3.67-.17-6.18-.75-8.37-1.6-2.27-.88-4.19-2.06-6.11-3.98-1.92-1.92-3.1-3.84-3.98-6.11-.85-2.19-1.43-4.7-1.6-8.37-.17-3.68-.21-4.85-.21-14.21s.04-10.54,.21-14.21c.17-3.67,.75-6.18,1.6-8.37,.88-2.27,2.06-4.19,3.98-6.11,1.92-1.92,3.84-3.1,6.11-3.98,2.19-.85,4.7-1.43,8.37-1.6,3.68-.17,4.85-.21,14.21-.21s10.54,.04,14.21,.21c3.67,.17,6.18,.75,8.37,1.6,2.27,.88,4.19,2.06,6.11,3.98s3.1,3.84,3.98,6.11c.85,2.19,1.43,4.7,1.6,8.37,.17,3.68,.21,4.85,.21,14.21s-.04,10.54-.21,14.21Z"/></svg>