<?xml version="1.0" encoding="UTF-8"?><svg id="Graphic_Elements" xmlns="http://www.w3.org/2000/svg" viewBox="0 0 113.39 113.39"><defs><style>.cls-1{fill:#fff;}.cls-2{fill:#da0000;}</style></defs><circle class="cls-2" cx="56.82" cy="56.83" r="54.75"/><path class="cls-1" d="M91.8,39.26c-.84-3.14-3.31-5.61-6.45-6.45-5.69-1.53-28.52-1.53-28.52-1.53,0,0-22.83,0-28.52,1.53-3.14,.84-5.61,3.31-6.45,6.45-1.53,5.69-1.53,17.57-1.53,17.57,0,0,0,11.88,1.53,17.57,.84,3.14,3.31,5.61,6.45,6.45,5.69,1.53,28.52,1.53,28.52,1.53,0,0,22.83,0,28.52-1.53,3.14-.84,5.61-3.31,6.45-6.45,1.53-5.69,1.53-17.57,1.53-17.57,0,0,0-11.88-1.53-17.57Zm-42.28,28.52v-21.9l18.97,10.95-18.97,10.95Z"/></svg>