<?xml version="1.0" encoding="UTF-8"?><svg id="Graphic_Elements" xmlns="http://www.w3.org/2000/svg" viewBox="0 0 113.39 113.39"><defs><style>.cls-1{fill:#010201;}.cls-2{fill:#fff;}.cls-3{fill:#6abac5;}.cls-4{fill:#cb1c54;}</style></defs><circle class="cls-1" cx="56.82" cy="56.83" r="54.75"/><g><path class="cls-2" d="M42.21,78.81c.07,.06,.13,.12,.2,.18,.61,.43,1.04,1.04,1.62,1.51,1.8,1.45,3.83,2.23,6.15,2.37,5.5,.34,10.3-3.8,10.92-9.24,.03-.27,.02-.53,.02-.8,0-16.38,0-32.76,0-49.14q0-1.11,1.1-1.11c2.49,0,4.98,0,7.47,0,.23,0,.48-.04,.69,.1,.01,.01,.03,.02,.04,.03,.12,.12,.15,.28,.19,.44,.95,4.41,3.28,7.94,6.92,10.6,.23,.17,.42,.37,.64,.55,.16,.13,.32,.27,.48,.4,.59,.33,1,.87,1.51,1.3,2.01,1.68,4.29,2.84,6.83,3.49,.22,.06,.48,.05,.64,.27,.01,.01,.03,.03,.04,.04,.15,.16,.12,.36,.12,.55,0,2.89,0,5.78,0,8.66,0,.66-.09,.69-.76,.7-2.12,0-4.19-.28-6.25-.75-3.53-.81-6.8-2.25-9.82-4.23-.16-.1-.32-.33-.49-.25-.21,.1-.1,.37-.1,.57,0,8.13,.03,16.26-.02,24.39-.03,5.68-1.84,10.77-5.56,15.1-3.95,4.6-8.97,7.27-15,8.01-4.64,.57-9.05-.27-13.23-2.34-.68-.33-1.32-.72-1.93-1.18l-.57-.51c-1.44-1.19-2.44-2.73-3.38-4.31-1.44-2.43-2.38-5.06-2.83-7.85-.26-1.6-.39-3.21-.31-4.82,.28-5.21,2.04-9.85,5.39-13.87,2.82-3.37,6.33-5.72,10.48-7.14,1.73-.59,3.51-.96,5.34-1.09,.34-.02,.67-.1,1.02-.08,.16,.01,.33,0,.47,.11,.02,.01,.03,.03,.05,.03,.1,.16,.07,.34,.07,.52,0,2.93,0,5.86,0,8.79,0,.1,0,.21,0,.31-.01,.29-.16,.39-.44,.31-.8-.23-1.63-.33-2.45-.38-1.29-.07-2.55,.11-3.75,.56-4.03,1.49-6.47,4.37-6.98,8.62-.5,4.19,1.15,7.54,4.63,9.95,.29,.2,.59,.39,.86,.62Z"/><path class="cls-4" d="M34.62,89.02c.16-.04,.24,.08,.35,.15,2.62,1.6,5.45,2.64,8.47,3.13,1.52,.25,3.06,.35,4.6,.27,5.15-.27,9.76-1.98,13.75-5.28,3.84-3.17,6.39-7.18,7.67-11.99,.4-1.52,.62-3.07,.7-4.64,.05-.9,.04-1.81,.04-2.71,0-7.75,0-15.49,0-23.24v-.53c.2-.05,.29,.1,.4,.17,2.76,1.89,5.74,3.29,8.97,4.17,1.77,.49,3.57,.81,5.4,.97,.77,.07,1.54,.06,2.31,.11,.34,.02,.34,.01,.34-.34,0-.37,0-.74,0-1.11,0-2.62,0-5.24,0-7.87,0-.16,0-.33,.02-.49,.69,.08,1.37,.23,2.07,.28,.43,.03,.86,.07,1.29,.06,.21,0,.3,.07,.28,.28,0,.09,0,.18,0,.27v11.38c0,.07,0,.15,0,.22,0,.33,0,.34-.36,.34-1.19,0-2.37-.08-3.54-.24-2.4-.32-4.73-.9-6.99-1.78-2.16-.84-4.2-1.92-6.11-3.23-.12-.08-.24-.16-.42-.27v.53c0,8.28,0,16.56,0,24.84,0,4.41-1.15,8.51-3.5,12.25-2.84,4.52-6.79,7.69-11.81,9.52-3.04,1.11-6.19,1.53-9.43,1.29-5.46-.4-10.18-2.49-14.2-6.19-.11-.1-.2-.22-.3-.32Z"/><path class="cls-3" d="M70.37,22.7c-.16,0-.32,.02-.49,.02-2.67,0-5.33,0-8,0q-.62,0-.62,.6c0,16.29,0,32.59,0,48.88,0,1.13-.08,2.25-.44,3.33-1.25,3.81-3.81,6.33-7.72,7.22-4.19,.96-7.76-.32-10.59-3.57-.05-.05-.08-.12-.12-.18,.81,.32,1.62,.65,2.48,.82,2.73,.54,5.31,.12,7.68-1.34,2.74-1.69,4.36-4.16,4.92-7.32,.11-.6,.12-1.2,.12-1.81,0-16.32,0-32.65,0-48.97,0-.76-.11-.67,.65-.67,3.76,0,7.53,0,11.29,0,.09,0,.18,0,.27,0,.39,0,.39,0,.39,.4,0,.87-.02,1.75,.16,2.61Z"/><path class="cls-3" d="M50.22,49.47c-2.3,.08-4.55,.44-6.74,1.17-3.16,1.05-5.96,2.7-8.41,4.95-3.21,2.96-5.4,6.55-6.6,10.74-.43,1.49-.67,3.02-.78,4.58-.07,.93-.09,1.87-.04,2.79,.14,2.58,.67,5.09,1.66,7.49,1.1,2.68,2.64,5.08,4.64,7.19,.04,.04,.07,.1,.1,.14-.45-.2-.82-.53-1.2-.83-3.73-2.96-6.37-6.69-7.81-11.24-.5-1.58-.82-3.2-.97-4.86-.11-1.2-.13-2.4-.05-3.59,.18-2.75,.83-5.4,1.97-7.92,1.19-2.63,2.81-4.97,4.87-6.99,2.4-2.35,5.18-4.12,8.36-5.26,1.99-.71,4.03-1.15,6.14-1.3,1.53-.11,3.05-.08,4.56,.1,.2,.02,.33,.07,.32,.31-.02,.84-.02,1.69-.02,2.53Z"/><path class="cls-4" d="M42.21,78.81c-.93-.42-1.73-1.02-2.46-1.72-1.83-1.76-2.91-3.9-3.2-6.42-.59-5.29,2.74-9.85,7.37-11.26,1.98-.6,3.95-.63,5.95-.09,.11,.03,.22,.08,.34,.05,.07-.16,.03-.32,.03-.48,0-2.96,0-5.92,0-8.89,0-.16,.02-.32,.02-.49,1.14-.08,2.28,.02,3.41,.15,.18,.02,.23,.1,.22,.26,0,.09,0,.18,0,.27,0,3.92,0,7.85,0,11.77,0,.14,.04,.3-.05,.45-.52-.1-1.02-.25-1.55-.33-3.03-.42-5.77,.28-8.17,2.18-2.11,1.66-3.41,3.85-3.84,6.49-.46,2.81,.12,5.41,1.73,7.77,.07,.1,.12,.2,.19,.3Z"/><path class="cls-4" d="M78.16,34.32c-1.14-.67-2.14-1.53-3.06-2.47-2.47-2.54-4.03-5.55-4.69-9.03,0-.03,0-.06,0-.09,1.06-.06,2.13,0,3.19-.03,.19,0,.27,.07,.25,.26,0,.07,0,.15,0,.22-.05,2.98,.83,5.71,2.29,8.28,.52,.92,1.14,1.76,1.82,2.57,.07,.09,.18,.16,.19,.29Z"/><path class="cls-3" d="M87.62,39.77c-3.03-.65-5.7-2.02-8.02-4.08-.34-.3-.69-.6-.96-.97,.11-.01,.19,.06,.28,.11,1.84,1.05,3.81,1.74,5.89,2.09,.81,.13,1.64,.22,2.47,.21,.35,0,.35,0,.35,.34,0,.77-.01,1.53-.02,2.3Z"/></g></svg>