<?xml version="1.0" encoding="UTF-8"?><svg id="Graphic_Elements" xmlns="http://www.w3.org/2000/svg" viewBox="0 0 113.39 113.39"><defs><style>.cls-1{fill:#627428;fill-rule:evenodd;}</style></defs><path class="cls-1" d="M56.82,2.08C26.58,2.08,2.07,26.59,2.07,56.83s24.51,54.75,54.75,54.75,54.75-24.51,54.75-54.75S87.06,2.08,56.82,2.08Zm30.26,43.04c.03,.62,.04,1.25,.04,1.88,0,19.21-14.62,41.37-41.37,41.37-8.21,0-15.85-2.41-22.29-6.53,1.14,.13,2.3,.2,3.47,.2,6.81,0,13.08-2.32,18.06-6.22-6.36-.12-11.73-4.32-13.58-10.1,.89,.17,1.8,.26,2.73,.26,1.33,0,2.61-.18,3.83-.51-6.65-1.33-11.66-7.21-11.66-14.25,0-.06,0-.12,0-.19,1.96,1.09,4.2,1.75,6.58,1.82-3.9-2.6-6.47-7.06-6.47-12.1,0-2.66,.72-5.16,1.97-7.31,7.17,8.8,17.88,14.58,29.97,15.19-.25-1.06-.38-2.17-.38-3.31,0-8.03,6.51-14.54,14.54-14.54,4.18,0,7.96,1.77,10.61,4.59,3.31-.65,6.42-1.86,9.23-3.53-1.09,3.39-3.39,6.24-6.39,8.04,2.94-.35,5.74-1.13,8.35-2.29-1.95,2.92-4.41,5.48-7.25,7.53Z"/></svg>