<?xml version="1.0" encoding="UTF-8"?><svg id="Graphic_Elements" xmlns="http://www.w3.org/2000/svg" viewBox="0 0 113.39 113.39"><defs><style>.cls-1{fill:#5a751a;}</style></defs><polygon class="cls-1" points="49.52 67.78 68.49 56.83 49.52 45.88 49.52 67.78"/><path class="cls-1" d="M56.82,2.08C26.58,2.08,2.07,26.59,2.07,56.83s24.51,54.75,54.75,54.75,54.75-24.51,54.75-54.75S87.06,2.08,56.82,2.08Zm34.98,72.32c-.84,3.14-3.31,5.61-6.45,6.45-5.69,1.53-28.52,1.53-28.52,1.53,0,0-22.83,0-28.52-1.53-3.14-.84-5.61-3.31-6.45-6.45-1.53-5.69-1.53-17.57-1.53-17.57,0,0,0-11.88,1.53-17.57,.84-3.14,3.31-5.61,6.45-6.45,5.69-1.53,28.52-1.53,28.52-1.53,0,0,22.83,0,28.52,1.53,3.14,.84,5.61,3.31,6.45,6.45,1.53,5.69,1.53,17.57,1.53,17.57,0,0,0,11.88-1.53,17.57Z"/></svg>