<?xml version="1.0" encoding="UTF-8"?><svg id="Graphic_Elements" xmlns="http://www.w3.org/2000/svg" viewBox="0 0 113.39 113.39"><defs><style>.cls-1{fill:#fefefe;}.cls-2{fill:#4467ad;}</style></defs><circle class="cls-2" cx="56.82" cy="56.83" r="54.75"/><g><path class="cls-1" d="M61.06,49.36c.9-1.01,1.64-2.04,2.56-2.91,2.84-2.68,6.2-4.03,10.12-3.99,2.15,.02,4.29,.17,6.36,.77,4.75,1.37,7.51,4.65,8.83,9.29,.99,3.48,1.17,7.06,1.18,10.64,.01,7.56-.02,15.13,0,22.69,0,.71-.2,.89-.89,.89-3.9-.03-7.79-.03-11.69,0-.69,0-.83-.21-.83-.85,.02-7.2,.03-14.39,0-21.59,0-1.8-.12-3.61-.63-5.36-.93-3.23-3.24-4.88-6.63-4.7-4.62,.24-7.02,2.53-7.61,7.23-.14,1.12-.21,2.24-.21,3.38,0,7,0,14,.02,21,0,.7-.17,.9-.89,.9-3.92-.03-7.85-.03-11.77,0-.63,0-.81-.17-.81-.8,.02-13.86,.02-27.71,0-41.57,0-.69,.22-.84,.87-.84,3.73,.03,7.45,.03,11.18,0,.69,0,.86,.22,.85,.87-.04,1.66-.01,3.31-.01,4.97Z"/><path class="cls-1" d="M39.71,65.2c0,6.86-.01,13.71,.02,20.57,0,.76-.19,.99-.98,.98-3.89-.04-7.79-.03-11.68,0-.62,0-.81-.15-.81-.8,.02-13.88,.02-27.76,0-41.64,0-.57,.14-.78,.75-.78,3.95,.03,7.9,.03,11.85,0,.76,0,.86,.29,.86,.94-.02,6.91-.01,13.82-.01,20.74Z"/><path class="cls-1" d="M40.78,29.78c0,4.3-3.49,7.81-7.78,7.81-4.24,0-7.76-3.51-7.78-7.74-.01-4.28,3.51-7.81,7.79-7.81,4.26,0,7.76,3.5,7.77,7.74Z"/></g></svg>