<?xml version="1.0" encoding="UTF-8"?><svg id="Graphic_Elements" xmlns="http://www.w3.org/2000/svg" viewBox="0 0 113.39 113.39"><defs><style>.cls-1{fill:#5a751a;}</style></defs><path class="cls-1" d="M56.82,2.08C26.58,2.08,2.07,26.59,2.07,56.83s24.51,54.75,54.75,54.75,54.75-24.51,54.75-54.75S87.06,2.08,56.82,2.08Zm34.47,38.61v11.38c0,.07,0,.15,0,.22,0,.33,0,.34-.36,.34-1.19,0-2.37-.08-3.54-.24-2.4-.32-4.73-.9-6.99-1.78-2.16-.84-4.2-1.92-6.11-3.23-.12-.08-.24-.16-.42-.27v.53c0,8.28,0,16.56,0,24.84,0,4.41-1.15,8.51-3.5,12.25-2.84,4.52-6.79,7.69-11.81,9.52-3.04,1.11-6.19,1.53-9.43,1.29-5.46-.4-10.18-2.49-14.2-6.19-.11-.1-.2-.22-.3-.32-.19-.17-.38-.34-.57-.51h0c-.45-.2-.82-.53-1.2-.83-3.73-2.96-6.37-6.69-7.81-11.24-.5-1.58-.82-3.2-.97-4.86-.11-1.2-.13-2.4-.05-3.59,.18-2.75,.83-5.4,1.97-7.92,1.19-2.63,2.81-4.97,4.87-6.99,2.4-2.35,5.18-4.12,8.36-5.26,1.99-.71,4.03-1.15,6.14-1.3,1.53-.11,3.05-.08,4.56,.1,.2,.02,.33,.07,.32,.31-.02,.84-.02,1.69-.02,2.53,.02,.01,.03,.03,.05,.03,1.14-.08,2.28,.02,3.41,.15,.18,.02,.23,.1,.22,.26,0,.09,0,.18,0,.27,0,3.92,0,7.85,0,11.77,0,.14,.04,.3-.05,.45-.52-.1-1.02-.25-1.55-.33-3.03-.42-5.77,.28-8.17,2.18-2.11,1.66-3.41,3.85-3.84,6.49-.46,2.81,.12,5.41,1.73,7.77,.07,.1,.12,.2,.19,.3l.2,.18c.81,.32,1.62,.65,2.48,.82,2.73,.54,5.31,.12,7.68-1.34,2.74-1.69,4.36-4.16,4.92-7.32,.11-.6,.12-1.2,.12-1.81,0-16.32,0-32.65,0-48.97,0-.76-.11-.67,.65-.67,3.76,0,7.53,0,11.29,0,.09,0,.18,0,.27,0,.39,0,.39,0,.39,.4,0,.87-.02,1.75,.16,2.61,.01,.01,.03,.02,.04,.03,1.06-.06,2.13,0,3.19-.03,.19,0,.27,.07,.25,.26,0,.07,0,.15,0,.22-.05,2.98,.83,5.71,2.29,8.28,.52,.92,1.14,1.76,1.82,2.57,.07,.09,.18,.16,.19,.29,.16,.13,.32,.27,.48,.4h0c.11-.01,.19,.06,.28,.11,1.84,1.05,3.81,1.74,5.89,2.09,.81,.13,1.64,.22,2.47,.21,.35,0,.35,0,.35,.34,0,.77-.01,1.53-.02,2.3,.01,.01,.03,.03,.04,.04,.69,.08,1.37,.23,2.07,.28,.43,.03,.86,.07,1.29,.06,.21,0,.3,.07,.28,.28,0,.09,0,.18,0,.27Z"/></svg>