<?xml version="1.0" encoding="UTF-8"?><svg id="Graphic_Elements" xmlns="http://www.w3.org/2000/svg" viewBox="0 0 113.39 113.39"><defs><style>.cls-1{fill:#fff;}.cls-2{fill:#4676ed;}</style></defs><path class="cls-2" d="M111.57,56.83c0-30.24-24.51-54.75-54.75-54.75S2.07,26.6,2.07,56.83c0,27.33,20.02,49.98,46.2,54.09v-38.26h-13.9v-15.83h13.9v-12.06c0-13.72,8.17-21.3,20.68-21.3,5.99,0,12.26,1.07,12.26,1.07v13.47h-6.9c-6.8,0-8.92,4.22-8.92,8.55v10.27h15.18l-2.43,15.83h-12.76v38.26c26.17-4.11,46.2-26.76,46.2-54.09Z"/><path class="cls-1" d="M78.13,72.66l2.43-15.83h-15.18v-10.27c0-4.33,2.12-8.55,8.92-8.55h6.9v-13.47s-6.27-1.07-12.26-1.07c-12.51,0-20.68,7.58-20.68,21.3v12.06h-13.9v15.83h13.9v38.26c2.79,.44,5.64,.67,8.55,.67s5.77-.23,8.55-.67v-38.26h12.76Z"/></svg>