<?xml version="1.0" encoding="UTF-8"?><svg id="Graphic_Elements" xmlns="http://www.w3.org/2000/svg" xmlns:xlink="http://www.w3.org/1999/xlink" viewBox="0 0 113.39 113.39"><defs><style>.cls-1{fill:#627428;}</style><clipPath id="clippath"><circle class="cls-1" cx="56.82" cy="56.83" r="54.75"/></clipPath></defs><circle class="cls-1" cx="56.82" cy="56.83" r="54.75"/><g><path d="M56.82,28.57c9.2,0,10.29,.04,13.93,.2,3.36,.15,5.19,.71,6.4,1.19,1.61,.63,2.76,1.37,3.96,2.58,1.21,1.21,1.95,2.35,2.58,3.96,.47,1.21,1.03,3.04,1.19,6.4,.17,3.64,.2,4.73,.2,13.93s-.04,10.29-.2,13.93c-.15,3.36-.71,5.19-1.19,6.4-.63,1.61-1.37,2.76-2.58,3.96-1.21,1.21-2.35,1.95-3.96,2.58-1.21,.47-3.04,1.03-6.4,1.19-3.63,.17-4.72,.2-13.93,.2s-10.3-.04-13.93-.2c-3.36-.15-5.19-.71-6.4-1.19-1.61-.63-2.76-1.37-3.96-2.58-1.21-1.21-1.95-2.35-2.58-3.96-.47-1.21-1.03-3.04-1.19-6.4-.17-3.64-.2-4.73-.2-13.93s.04-10.29,.2-13.93c.15-3.36,.71-5.19,1.19-6.4,.63-1.61,1.37-2.76,2.58-3.96,1.21-1.21,2.35-1.95,3.96-2.58,1.21-.47,3.04-1.03,6.4-1.19,3.64-.17,4.73-.2,13.93-.2m0-6.21c-9.36,0-10.54,.04-14.21,.21-3.67,.17-6.18,.75-8.37,1.6-2.27,.88-4.19,2.06-6.11,3.98-1.92,1.92-3.1,3.84-3.98,6.11-.85,2.19-1.43,4.7-1.6,8.37-.17,3.68-.21,4.85-.21,14.21s.04,10.54,.21,14.21c.17,3.67,.75,6.18,1.6,8.37,.88,2.27,2.06,4.19,3.98,6.11,1.92,1.92,3.84,3.1,6.11,3.98,2.19,.85,4.7,1.43,8.37,1.6,3.68,.17,4.85,.21,14.21,.21s10.54-.04,14.21-.21c3.67-.17,6.18-.75,8.37-1.6,2.27-.88,4.19-2.06,6.11-3.98,1.92-1.92,3.1-3.84,3.98-6.11,.85-2.19,1.43-4.7,1.6-8.37,.17-3.68,.21-4.85,.21-14.21s-.04-10.54-.21-14.21c-.17-3.67-.75-6.18-1.6-8.37-.88-2.27-2.06-4.19-3.98-6.11-1.92-1.92-3.84-3.1-6.11-3.98-2.19-.85-4.7-1.43-8.37-1.6-3.68-.17-4.85-.21-14.21-.21h0Z"/><path d="M56.82,39.13c-9.78,0-17.7,7.93-17.7,17.7s7.93,17.7,17.7,17.7,17.7-7.93,17.7-17.7-7.93-17.7-17.7-17.7Zm0,29.19c-6.35,0-11.49-5.14-11.49-11.49s5.14-11.49,11.49-11.49,11.49,5.14,11.49,11.49-5.14,11.49-11.49,11.49Z"/><circle cx="75.22" cy="38.43" r="4.14"/></g></svg>