<?xml version="1.0" encoding="UTF-8"?><svg id="Graphic_Elements" xmlns="http://www.w3.org/2000/svg" viewBox="0 0 113.39 113.39"><defs><style>.cls-1{fill:#fff;}.cls-2{fill:#5a99ec;}</style></defs><circle class="cls-2" cx="56.82" cy="56.83" r="54.75"/><path class="cls-1" d="M45.76,88.37c26.74,0,41.37-22.15,41.37-41.37,0-.63-.01-1.26-.04-1.88,2.84-2.05,5.31-4.61,7.25-7.53-2.61,1.16-5.41,1.94-8.35,2.29,3-1.8,5.31-4.65,6.39-8.04-2.81,1.67-5.92,2.88-9.23,3.53-2.65-2.83-6.43-4.59-10.61-4.59-8.03,0-14.54,6.51-14.54,14.54,0,1.14,.13,2.25,.38,3.31-12.08-.61-22.8-6.39-29.97-15.19-1.25,2.15-1.97,4.64-1.97,7.31,0,5.04,2.57,9.5,6.47,12.1-2.38-.07-4.63-.73-6.58-1.82,0,.06,0,.12,0,.19,0,7.04,5.01,12.92,11.66,14.25-1.22,.33-2.51,.51-3.83,.51-.94,0-1.85-.09-2.73-.26,1.85,5.78,7.22,9.98,13.58,10.1-4.98,3.9-11.25,6.22-18.06,6.22-1.17,0-2.33-.07-3.47-.2,6.43,4.12,14.07,6.53,22.29,6.53"/></svg>