<?xml version="1.0" encoding="UTF-8"?><svg id="Calque_1" xmlns="http://www.w3.org/2000/svg" viewBox="0 0 9.82 9.45"><defs><style>.cls-1{fill:#f2f2f2;stroke:#f2f2f2;stroke-miterlimit:10;stroke-width:.1px;}</style></defs><path class="cls-1" d="M9.59,5s-.06-.01-.09-.04L4.91,.38,.33,4.97s-.13,.05-.18,0c-.05-.05-.05-.13,0-.18L4.82,.11s.13-.05,.18,0l4.67,4.67s.05,.13,0,.18c-.02,.02-.06,.04-.09,.04Z"/><path class="cls-1" d="M8.33,9.35h-2.26c-.07,0-.13-.06-.13-.13v-3.24H3.88v3.24c0,.07-.06,.13-.13,.13H1.49c-.07,0-.13-.06-.13-.13V3.73c0-.07,.06-.13,.13-.13s.13,.06,.13,.13v5.37H3.62v-3.24c0-.07,.06-.13,.13-.13h2.33c.07,0,.13,.06,.13,.13v3.24h2V3.73c0-.07,.06-.13,.13-.13s.13,.06,.13,.13v5.49c0,.07-.06,.13-.13,.13Z"/></svg>