<?xml version="1.0" encoding="UTF-8"?><svg id="Calque_1" xmlns="http://www.w3.org/2000/svg" viewBox="0 0 9.82 9.45"><defs><style>.cls-1{fill:#f2f2f2;stroke:#f2f2f2;stroke-miterlimit:10;stroke-width:.1px;}</style></defs><path class="cls-1" d="M4.77,4.64c-1.26,0-2.28-1.02-2.28-2.28S3.52,.08,4.77,.08s2.28,1.02,2.28,2.28-1.02,2.28-2.28,2.28ZM4.77,.34c-1.11,0-2.02,.91-2.02,2.02s.91,2.02,2.02,2.02,2.02-.91,2.02-2.02S5.89,.34,4.77,.34Z"/><path class="cls-1" d="M5.96,9.37H2.03c-.07,0-.13-.06-.13-.13v-1.93c0-1.61,1.31-2.93,2.93-2.93,1.11,0,2.11,.62,2.62,1.61,.03,.06,0,.14-.06,.17-.06,.03-.14,0-.17-.06-.46-.91-1.37-1.47-2.39-1.47-1.47,0-2.67,1.2-2.67,2.67v1.8h3.8c.07,0,.13,.06,.13,.13s-.06,.13-.13,.13Z"/><g><path class="cls-1" d="M8.76,8.24h-2.27c-.07,0-.13-.06-.13-.13s.06-.13,.13-.13h2.27c.07,0,.13,.06,.13,.13s-.06,.13-.13,.13Z"/><path class="cls-1" d="M7.63,9.37c-.07,0-.13-.06-.13-.13v-2.27c0-.07,.06-.13,.13-.13s.13,.06,.13,.13v2.27c0,.07-.06,.13-.13,.13Z"/></g></svg>