<?xml version="1.0" encoding="UTF-8"?><svg id="Calque_1" xmlns="http://www.w3.org/2000/svg" viewBox="0 0 10 10"><defs><style>.cls-1{fill:#676766;stroke:#676766;stroke-miterlimit:10;stroke-width:.5px;}</style></defs><path class="cls-1" d="M4.13,7.28c-1.89,0-3.43-1.54-3.43-3.43S2.24,.42,4.13,.42s3.43,1.54,3.43,3.43-1.54,3.43-3.43,3.43ZM4.13,.66C2.37,.66,.94,2.09,.94,3.85s1.43,3.18,3.18,3.18,3.19-1.43,3.19-3.18S5.88,.66,4.13,.66Z"/><path class="cls-1" d="M8.45,9.46s-.07-.01-.09-.04l-2.39-2.8c-.04-.05-.04-.13,.01-.17,.05-.04,.13-.04,.17,.01l2.39,2.8c.04,.05,.04,.13-.01,.17-.02,.02-.05,.03-.08,.03Z"/></svg>