<?xml version="1.0" encoding="UTF-8"?><svg id="Calque_1" xmlns="http://www.w3.org/2000/svg" viewBox="0 0 10.32 9.45"><defs><style>.cls-1{fill:#f2f2f2;}</style></defs><path class="cls-1" d="M10.18,.51H.17C.09,.51,.03,.4,.03,.26S.09,.02,.17,.02H10.18c.08,0,.14,.11,.14,.25s-.06,.25-.14,.25Z"/><path class="cls-1" d="M10.18,4.97H.17c-.08,0-.14-.11-.14-.25s.06-.25,.14-.25H10.18c.08,0,.14,.11,.14,.25s-.06,.25-.14,.25Z"/><path class="cls-1" d="M10.18,9.44H.17c-.08,0-.14-.11-.14-.25s.06-.25,.14-.25H10.18c.08,0,.14,.11,.14,.25s-.06,.25-.14,.25Z"/></svg>