<?xml version="1.0" encoding="UTF-8"?><svg id="Calque_1" xmlns="http://www.w3.org/2000/svg" viewBox="0 0 9.82 9.45"><defs><style>.cls-1{fill:#f2f2f2;stroke:#f2f2f2;stroke-miterlimit:10;stroke-width:.1px;}</style></defs><path class="cls-1" d="M9.63,4.43h-1.15V2.24c0-.07-.06-.13-.13-.13h-1.65l-.59-1.01s-.05-.05-.08-.06c-.03,0-.07,0-.1,.02l-1.59,1.07s-.04-.01-.06-.01H.2c-.07,0-.13,.06-.13,.13v5.87c0,.07,.06,.13,.13,.13H8.34c.07,0,.13-.06,.13-.13v-2.28h1.15c.07,0,.13-.06,.13-.13v-1.14c0-.07-.06-.13-.13-.13Zm-1.41-2.07v.8h-.9l-.47-.8h1.37Zm-2.27-1.02l.55,.93s.02,.04,.03,.06l.49,.83H3.25l2.7-1.82Zm2.27,6.64H.33V2.37H3.96l-1.18,.8H1.58c-.07,0-.13,.06-.13,.13s.06,.13,.13,.13h6.64v1.01h-3.25c-.07,0-.13,.06-.13,.13v1.14c0,.07,.06,.13,.13,.13h3.25v2.15Zm1.28-2.41H5.09v-.88h4.41v.88Z"/></svg>