<?xml version="1.0" encoding="UTF-8"?><svg id="Calque_1" xmlns="http://www.w3.org/2000/svg" viewBox="0 0 9.82 9.45"><defs><style>.cls-1{fill:#f2f2f2;stroke:#f2f2f2;stroke-miterlimit:10;stroke-width:.1px;}</style></defs><path class="cls-1" d="M4.89,9.35s-.06,0-.08-.03c-.19-.15-4.6-3.74-4.6-6.66C.21,1.39,.87,.44,1.93,.19c1.11-.26,2.3,.32,2.96,1.44C5.61,.36,6.9,0,7.83,.21c1.28,.29,1.74,1.46,1.74,2.46s-.48,2.09-1.42,3.37c-.04,.06-.12,.07-.18,.03-.06-.04-.07-.12-.03-.18,.91-1.23,1.37-2.31,1.37-3.21,0-1.16-.58-1.99-1.54-2.21-.89-.2-2.13,.18-2.77,1.5-.02,.04-.07,.07-.12,.07-.05,0-.1-.03-.12-.07C4.3,1.03,3.23,.15,1.99,.44,1.04,.67,.47,1.5,.47,2.67c0,2.58,3.81,5.88,4.42,6.39,.26-.21,1.08-.92,1.93-1.84,.05-.05,.13-.06,.18,0,.05,.05,.06,.13,0,.18-1.04,1.13-2.03,1.93-2.04,1.94-.02,.02-.05,.03-.08,.03Z"/><path class="cls-1" d="M9.44,7.01h-3.54c-.07,0-.13-.06-.13-.13s.06-.13,.13-.13h3.54c.07,0,.13,.06,.13,.13s-.06,.13-.13,.13Z"/><path class="cls-1" d="M7.67,8.77c-.07,0-.13-.06-.13-.13v-3.51c0-.07,.06-.13,.13-.13s.13,.06,.13,.13v3.51c0,.07-.06,.13-.13,.13Z"/></svg>