<?xml version="1.0" encoding="UTF-8"?><svg id="Calque_2" xmlns="http://www.w3.org/2000/svg" viewBox="0 0 24.09 23.34"><defs><style>.cls-1{fill:#788e30;}</style></defs><path class="cls-1" d="M12.42,21.31c-.06,0-.13-.02-.18-.06-.41-.33-10.03-8.15-10.03-14.52C2.21,3.95,3.65,1.88,5.96,1.33c2.43-.57,5.02,.71,6.46,3.15,1.58-2.78,4.38-3.57,6.42-3.11,2.8,.64,3.8,3.19,3.8,5.36,0,2.69-1.69,5.95-5.04,9.7-2.47,2.77-4.97,4.8-5,4.82-.05,.04-.11,.06-.18,.06ZM7.16,1.76c-.35,0-.71,.04-1.07,.13-2.07,.49-3.3,2.3-3.3,4.85,0,5.63,8.31,12.82,9.64,13.93,1.33-1.11,9.64-8.29,9.64-13.93,0-2.53-1.25-4.33-3.36-4.81-1.94-.44-4.65,.4-6.03,3.28-.05,.1-.15,.16-.25,.16-.1,0-.21-.06-.26-.16-.89-1.78-2.76-3.45-5.01-3.45Z"/><path class="cls-1" d="M12.42,21.69c-.15,0-.3-.05-.41-.15-.41-.33-10.17-8.28-10.17-14.81C1.84,3.76,3.38,1.55,5.87,.97c2.4-.57,4.96,.55,6.54,2.81,1.72-2.54,4.46-3.24,6.51-2.77,3.01,.69,4.09,3.41,4.09,5.73,0,2.78-1.73,6.13-5.13,9.95-2.49,2.8-5.02,4.84-5.04,4.86-.11,.09-.26,.14-.41,.14ZM7.16,2.13c-.33,0-.66,.04-.98,.12-1.89,.45-3.02,2.12-3.02,4.48,0,5.21,7.58,11.99,9.27,13.44,1.69-1.45,9.27-8.23,9.27-13.44,0-2.35-1.15-4.01-3.06-4.45-1.79-.41-4.32,.38-5.61,3.08-.11,.23-.34,.37-.59,.37-.25,0-.48-.14-.59-.36-.81-1.61-2.57-3.24-4.68-3.24Z"/></svg>