<?xml version="1.0" encoding="UTF-8"?><svg id="Calque_1" xmlns="http://www.w3.org/2000/svg" viewBox="0 0 9.86 9.56"><defs><style>.cls-1{fill:#f2f2f2;stroke:#f2f2f2;stroke-miterlimit:10;stroke-width:.1px;}</style></defs><path class="cls-1" d="M5.01,.08C3.3,.08,1.9,1.55,1.9,3.35v1.21c-.48,.23-.81,.72-.81,1.28,0,.75,.58,1.36,1.32,1.41,.08,.24,.29,.41,.56,.41,.32,0,.59-.26,.59-.59v-2.51c0-.32-.26-.59-.59-.59-.27,0-.5,.19-.57,.45-.08,0-.16,.02-.24,.04v-1.12C2.16,1.69,3.44,.34,5.01,.34s2.84,1.35,2.84,3.01v1.12c-.08-.02-.16-.03-.24-.04-.06-.26-.29-.45-.57-.45-.32,0-.59,.26-.59,.59v2.51c0,.32,.26,.59,.59,.59,.26,0,.48-.17,.56-.41,.25-.02,.47-.1,.67-.22v1.18c0,.26-.1,.5-.28,.68-.2,.2-.62,.38-.99,.3-.29-.06-.51-.26-.66-.6,.1-.08,.16-.21,.16-.34,0-.25-.21-.46-.46-.46s-.46,.21-.46,.46,.21,.46,.46,.46c.02,0,.04,0,.06,0,.23,.52,.59,.69,.85,.74,.07,.01,.15,.02,.23,.02,.39,0,.78-.18,.99-.4,.23-.23,.36-.54,.36-.87v-1.37s0-.02,0-.03c.24-.25,.39-.6,.39-.98,0-.56-.33-1.05-.81-1.28v-1.21C8.11,1.55,6.72,.08,5.01,.08ZM2.65,4.57c0-.18,.15-.32,.32-.32s.32,.15,.32,.32v2.51c0,.18-.15,.32-.32,.32s-.32-.15-.32-.32v-2.51Zm-.26,.12v2.3c-.58-.07-1.03-.56-1.03-1.15s.45-1.08,1.03-1.15Zm4.99,2.39c0,.18-.15,.32-.32,.32s-.32-.15-.32-.32v-2.51c0-.18,.15-.32,.32-.32s.32,.15,.32,.32v2.51Zm-1.33,1.38c-.11,0-.2-.09-.2-.2s.09-.2,.2-.2,.2,.09,.2,.2-.09,.2-.2,.2Zm2.62-2.62c0,.59-.45,1.08-1.03,1.15v-2.3c.58,.07,1.03,.56,1.03,1.15Z"/></svg>