<?xml version="1.0" encoding="UTF-8"?><svg id="Calque_1" xmlns="http://www.w3.org/2000/svg" viewBox="0 0 9.82 9.45"><defs><style>.cls-1{fill:#f2f2f2;stroke:#f2f2f2;stroke-miterlimit:10;stroke-width:.1px;}</style></defs><path class="cls-1" d="M4.85,.97s.05-.03,.07-.04L9.32,.09s.09,0,.13,.04c.03,.03,.05,.08,.04,.13l-.94,4.46s-.02,.05-.04,.07l-4.5,4.53s-.06,.04-.1,.04h0s-.07-.02-.1-.04L.25,5.77c-.06-.06-.06-.15,0-.2L4.85,.97Zm-.94,8.05l4.36-4.4L9.16,.41l-4.14,.79L.55,5.67l3.35,3.35Z"/><path class="cls-1" d="M7.35,2.06c.45,.45,.45,1.19,0,1.64-.23,.23-.52,.34-.82,.34s-.6-.11-.82-.34c-.45-.45-.45-1.19,0-1.64,.45-.45,1.19-.45,1.64,0Zm-1.44,1.44c.34,.34,.9,.34,1.24,0,.17-.17,.26-.39,.26-.62s-.09-.45-.26-.62c-.17-.17-.39-.26-.62-.26s-.45,.09-.62,.26c-.34,.34-.34,.9,0,1.24Z"/></svg>