<?xml version="1.0" encoding="UTF-8"?><svg id="Calque_1" xmlns="http://www.w3.org/2000/svg" viewBox="0 0 298.16 406.59"><defs><style>.cls-1{fill:#f2f2f2;}.cls-2{opacity:.25;}</style></defs><g class="cls-2"><path class="cls-1" d="M169.23,40.89c-27.84,57.85-22.41,123.41-36.16,184.8-7.52,33.58-21.39,65.14-41.66,93-10.07,13.84-21.52,26.65-34.21,38.13-12.49,11.3-26.72,19.66-39.9,29.94-2.26,1.76-.03,5.49,2.61,4.32,27.88-12.36,52.78-38.49,71.2-62.27,20.13-25.99,35.24-55.9,43.84-87.65,17.81-65.74,7.95-136.33,34.69-200.11,.11-.26-.29-.41-.41-.16h0Z"/><path class="cls-1" d="M64.17,179.34c10.73,20.81,22.41,41.59,29.89,63.85,3.7,11.02,6.52,22.38,7.59,33.98,1.09,11.78-.96,22.89-1.29,34.56-.03,1.05,1.36,1.48,1.82,.46,8.28-18.49,3.99-43.52-1.49-62.26-7.52-25.69-21.63-48.59-36.27-70.73-.09-.14-.32,0-.25,.15h0Z"/><path class="cls-1" d="M259.84,281.11c-19.68-16.45-46.53-16.89-70.22-10-15.63,4.55-30.14,12.13-44.43,19.77-15.74,8.41-31.69,15.73-47.79,23.34-1.91,.9-1.2,4.26,1.05,3.75,26.82-6.15,49.77-24.72,74.54-36,27.8-12.66,59.17-17.47,85.74,.66,1.01,.69,2.05-.75,1.12-1.52h0Z"/><path class="cls-1" d="M138.35,85.94c-1.46-8.73-11-8.24-15.13-1.37-4.25,7.07-.58,17.65,.65,24.92,2.18,12.93,4.36,25.87,6.54,38.8,.39,2.31,4.02,1.8,3.6-.51-1.77-9.68-3.53-19.36-5.3-29.05-.88-4.84-1.78-9.68-2.65-14.52l-.88-4.84c-2.26-6.86,1.71-11.22,11.92-13.08,.23,.71,1.37,.37,1.25-.35h0Z"/><path class="cls-1" d="M139.19,86.69c0-2.89,.07-5.79-.04-8.67-.06-1.52-.27-3.03-.33-4.54-.11-.96-.11-1.93,0-2.9,1.87-1.75,2.84-1.91,2.89-.47,.14,.79,1.01,1.11,1.65,.65,3.41-2.45-1.99-6.8-5.21-4.19-2.06,1.66-2.16,4.3-2,6.74,.29,4.52,1.13,8.95,1.89,13.4,.11,.62,1.16,.67,1.15-.01h0Z"/><path class="cls-1" d="M143.93,70.45c1.17-3.44,.68-7.47,1.57-11.08,.5-2.02,1.09-4.01,1.88-5.94,.44-1.06,.92-2.08,1.48-3.08,.28-.62,.63-1.2,1.05-1.74,1.29-2.18,3.6-2.35,6.94-.5,.26,1.67,2.85,1.3,2.59-.36-1.13-7.21-9.26-4.34-12.07-.07-2.06,3.12-3.48,6.89-4.21,10.54-.71,3.54-1.48,8.97,.36,12.25,.09,.15,.34,.19,.4,0h0Z"/><path class="cls-1" d="M158.13,49c2.57-3.44,3.86-7.67,6.54-11.17,3.22-4.21,7.08-7.53,11.72-10.08l-1.63-.64c2.42,7.53,1.59,14.11,.47,21.72-.17,1.17,1.5,1.53,1.96,.5,3.14-7.14,2.16-15.98-.16-23.2-.19-.6-1.08-.94-1.63-.64-7.66,4.2-18.33,13.62-17.79,23.38,.01,.26,.38,.32,.52,.13h0Z"/><path class="cls-1" d="M175.96,49.73c.53-.43,1.17-1.13,1.76-1.47,9.34-5.33,8.52,1.71,8.56,5.68s-.25,8.19-.97,12.23c-1.46,8.24-5.05,15.36-7.86,23.14-.45,1.25,1.19,2.16,2.02,1.12,8.32-10.43,11.76-28.64,9.3-41.67-1.7-9.01-11.07-7.03-12.93,.9-.02,.06,.07,.1,.12,.07h0Z"/><path class="cls-1" d="M178.46,91.32l1.93-2.18,4.89,5.14c.13,1.12-1.83,3.96-2.33,5.03-1.66,3.52-3.32,7.03-5.01,10.53-2.97,6.17-6.96,12.53-8.12,19.32-.2,1.15,1.3,1.55,1.96,.78,4.97-5.86,7.4-14.2,10.32-21.23,2.07-4.98,6.38-11.59,6.24-17.16-.18-7.54-8.38-6.52-10.27-.44-.07,.23,.22,.41,.38,.21h0Z"/><path class="cls-1" d="M171.94,130.69c9.53-8.88,19.38-17.53,29.72-25.45l-1.94-.77c.1,2.23,.19,4.46,.27,6.7,.06,1.66,2.73,1.33,2.59-.36-.18-2.22-.34-4.44-.48-6.67-.06-.94-1.27-1.31-1.94-.77-10.37,8.28-19.8,17.05-28.43,27.12-.11,.12,.09,.31,.21,.2h0Z"/><path class="cls-1" d="M201.95,112.77c2-1.39,4.08-2.63,6.3-3.65s6.47-3.57,6.79,.66-4.02,7.94-5.02,11.86c-.16,.63,.37,1.34,1.06,1.03,3.02-1.36,4.54-4.87,5.65-7.85,.93-2.51,2.28-6.33,.61-8.82-3.63-5.39-13.41,3-16.38,5.53-.79,.67,.16,1.83,1,1.25h0Z"/><path class="cls-1" d="M212.09,122.87c4.42,1.2,5.73,3.09,3.94,5.67-1.03,2.08-2.15,4.11-3.37,6.1-1.75,2.76-3.78,5.34-5.94,7.8-4.83,5.48-10.44,10.22-16,14.94-1.78,1.51,.52,4.38,2.28,2.83,9.71-8.5,23.37-19.32,26.32-32.66,.64-2.87,.48-6.86-2.79-8.06-2.76-1.01-4.43,.7-4.59,3.34,0,.08,.11,.12,.14,.04h0Z"/><path class="cls-1" d="M191.48,160.82c10.59,.5-6.65,9.69-10.29,11.8-6.91,4.02-13.31,8.75-19.11,14.26-10.78,10.24-20.59,23.36-24.74,37.79-.47,1.63,1.65,2.46,2.43,.96,9.43-17.93,19.02-33.59,36.01-45.49,8.68-6.08,21.36-9,24.16-20.41,.19-.78-.68-1.48-1.4-1.37-2.41,.26-4.77,.74-7.08,1.45-.51,.13-.62,.98,0,1.01h0Z"/><path class="cls-1" d="M107.84,174.9c-3.59-7.53-12.02-2.61-11.69,4.75,.38,8.33,11.52,15.35,16.47,21.03,8.15,9.36,14.52,19.68,21.28,30.02,.76,1.17,2.7-.02,2.1-1.27-4.09-8.4-9.4-16.19-15.13-23.56-2.83-3.64-5.79-7.18-8.88-10.6-2.06-2.28-4.18-4.5-6.36-6.67-5.2-3.33-4.83-7.61,1.12-12.83,.57,.39,1.42-.2,1.1-.88h0Z"/><path class="cls-1" d="M108.39,174.2c-2.88-6.34-7.27-11.98-11.34-17.6-2.45-3.38-5.26-6.78-7.14-10.51-2.43-4.83-4.12-8.85,2.83-7.92,.74,.1,1.29-1.03,.57-1.44-2.54-1.44-4.11-1.78-7.19-1.8-.72,0-1.63,.42-1.64,1.28-.07,6.69,2.84,11.87,6.63,17.25,5.1,7.24,10.27,15.1,16.83,21.09,.22,.2,.55-.1,.44-.35h0Z"/><path class="cls-1" d="M93.29,137.98c-2.24-4.39-4.19-8.95-5.88-13.59-.67-1.83-2.1-5.01-2.13-6.89-.76-2.51,.82-3.91,4.72-4.19,.71,.61,1.45,1.17,2.22,1.7,.64,.46,1.27-.34,.9-.94-2.45-3.97-8.98-6.58-10.62-.45-.86,3.21,.61,6.92,1.59,9.91,1.81,5.53,4.41,10.57,7.47,15.49,.6,.97,2.25-.03,1.73-1.04h0Z"/><path class="cls-1" d="M93.33,114.66c-1.61-4.96-2.73-10.01-3.31-15.2-.17-1.48-1.42-8.77-.32-9.76l7.51-.8c1.07,1.17,2.1,2.37,3.08,3.6,7.16,8.76,11.23,18.48,16.14,28.48,.41,.84,1.9,.54,1.67-.47-1.98-8.3-6.46-16.14-11.27-23.14-2.43-3.54-9.06-15.1-14.56-14.7-11.01,.8-2.25,27.32-.14,32.5,.32,.79,1.46,.27,1.2-.52h0Z"/><path class="cls-1" d="M118.38,120.95c1.94-2.43,2.92-2.03,2.93,1.2l.81,2.74,2.83,9.59c1.75,5.93,3.5,11.87,5.25,17.8,.5,1.69,3.09,.6,2.54-1.1-2.35-7.22-4.7-14.44-7.05-21.66-1.15-3.54-2.09-12.37-5.96-14.23-4.74-2.29-4.1,3.72-1.91,6.12,.31,.34,.85-.08,.57-.46h0Z"/><path class="cls-1" d="M131.15,145.26c1.19,3.26,1.34,6.39,1.39,9.82l2.11-.3c-.28-2.38-.99-4.56-2.18-6.65-.44-.76-1.65-.73-1.78,.26-.34,2.59,.44,5.04,2.31,6.89,.68,.68,1.78,.07,1.45-.88-.71-2.08-1.43-4.16-2.14-6.25-.32-.94-1.63-.43-1.58,.45,.13,2.59,.8,4.97,2.03,7.26,.37,.68,1.4,.6,1.53-.22,.59-3.8,.12-7.49-1.56-10.96-.63-1.31-2.5-.47-2.05,.89,1.07,3.27,1.66,6.68,1.66,10.12l2.49-.36c-.52-1.63-1.04-3.26-1.56-4.89-.45-1.4-.57-2.54-1.79-3.41-.43-.31-1.15-.16-1.33,.38-.47,1.43,0,2.26,.5,3.7,.59,1.75,1.19,3.5,1.78,5.25,.51,1.52,2.52,.64,2.49-.7-.07-3.82-.79-7.44-2.2-10.99l-2.05,.89c1.71,3.05,2.46,6.39,2.02,9.88l1.53-.22c-1.15-2.16-1.76-4.41-1.86-6.85l-1.58,.45c.7,2.09,1.4,4.18,2.09,6.27l1.45-.88c-1.55-1.57-2.17-3.41-1.8-5.59l-1.78,.26c1.03,1.97,1.61,3.98,1.78,6.21,.09,1.19,2.08,1.19,2.11-.02,.1-3.55-1.11-7.01-2.83-10.08-.23-.4-.83-.16-.67,.29h0Z"/><path class="cls-1" d="M166.41,138.34c1.37-2.1,2.5-4.38,4.03-6.38,1.57-2.05,3.57-3.57,5-5.73,.41-.63-.19-1.32-.88-1.1-4.77,1.59-8.51,8.13-8.68,13,0,.27,.35,.47,.52,.21h0Z"/><path class="cls-1" d="M214.86,108.72c-25.31,24.71-52.96,50.48-73.58,79.29-.56,.78,.51,1.9,1.25,1.2,26.01-24.42,48.83-53.56,72.85-79.99,.27-.3-.23-.79-.52-.5h0Z"/><path class="cls-1" d="M89.23,88.47c10.69,22.04,20.99,44.05,28.65,67.37,4.17,12.7,7.75,25.59,10.71,38.62,2.44,10.72,3.33,22.06,7.11,32.37,.31,.85,1.79,.68,1.81-.26,.45-21.77-9.02-46.32-16.03-66.8-8.44-24.66-18.64-48.99-31.98-71.42-.09-.16-.35-.06-.27,.12h0Z"/><path class="cls-1" d="M102.34,297.05c-.15-9-6.33-14.58-13.82-18.7-5.81-3.2-12.27-5.37-17.54-9.48l-4.23-4c-3.24-5.13-2.67-6.87,1.69-5.21,2.67-.46,7,1.41,9.51,2.03,1.43,.35,2.08-2.13,.64-2.52-5.17-1.37-20.48-7.29-16.74,3.3,6.53,18.48,34.24,13.91,39.35,34.75,.18,.74,1.17,.58,1.15-.16h0Z"/><path class="cls-1" d="M78.95,259.59c-3.19-3.53-6.49-6.78-9.95-10.05-1.42-1.34-11.9-10.4-5.98-10.59,.44-.01,.66-.63,.37-.94-2.26-2.43-7.3-1.91-6.38,2.31,.74,3.39,6.08,6.61,8.38,8.74,4.2,3.89,8.36,7.71,12.87,11.25,.45,.35,1.09-.3,.7-.73h0Z"/><path class="cls-1" d="M63.43,237.98c-1.29-1.19-2.08-1.99-2.67-3.68-.89-1.11-.68-1.96,.61-2.55,.44-1.03,1.06-1.32,1.87-.86,1.88,.11,4.48,1.88,6.15,2.64,3.58,1.62,7.42,4.03,11.31,4.7,.54,.09,.72-.61,.36-.92-3.18-2.7-7.82-4.18-11.57-5.99-2.45-1.18-5.87-3.65-8.77-2.66-1.74,.6-2.65,2.26-2.65,4.04,0,2.9,2.44,4.81,4.57,6.33,.7,.5,1.38-.5,.77-1.06h0Z"/><path class="cls-1" d="M79.86,237.66c-3.9-7.41-9.13-14.04-13.96-20.85-2.95-4.16-6.88-8.78-7.74-13.96-.83-5.01,1.37-2.88,5.23-2.2,.48,.08,.81-.66,.36-.92-2.35-1.37-4.65-2.34-7.19-3.34-.86-.34-1.62,.39-1.57,1.23,.41,6.98,3.5,12.27,7.49,17.88,5.4,7.59,10.77,15.53,17.25,22.23,.05,.05,.16,0,.12-.07h0Z"/><path class="cls-1" d="M62.88,200.65c-2.08-4.72-4.51-9.31-6.06-14.25l-1.75-7.3,12.74-6.03c3.15,.14,7.3,6.1,9.15,8.09,8.27,8.92,13.85,19.58,17.91,30.96,.41,1.16,2.1,.39,1.74-.75-3.58-11.05-9.18-21.25-16.9-29.97-4.81-5.44-12.41-13.54-20.4-13.37-15.41,.33-1.45,27.54,3.33,32.78,.11,.12,.32,0,.25-.15h0Z"/><path class="cls-1" d="M95.76,212.78c5.93-11.17,13.89,14.26,14.75,18.44,1.44,7.01,2.09,14.29,2.29,21.44,.44,15.99-2.91,30.89-6.09,46.42-.32,1.57,2.08,2.1,2.66,.67,6.49-16.15,7.73-34.62,6.33-51.84-1.25-15.44-3.89-32.77-16.87-42.75-.51-.4-1.31-.15-1.54,.44-.87,2.25-1.74,4.5-2.62,6.75-.28,.72,.74,1.07,1.08,.43h0Z"/><path class="cls-1" d="M138.12,296.86c12.09-17.58-.08-44.5,18.36-58.41l-2.22-.88c.72,2.98,.94,3.74,1.86,6.66,.4,1.26,2.44,.65,2.22-.62-.31-2.17-.76-4.31-1.35-6.42-.25-1.01-1.33-1.56-2.22-.88-18.81,14.27-8.03,41.15-17.77,59.93-.34,.66,.72,1.23,1.14,.63h0Z"/><path class="cls-1" d="M157.53,244.56c6.59-5.22,13.79-9.45,22.32-10.3,1.3-.13,4.38-.73,5.46-.07,4.11,2.49,.38,6.12-1.09,7.97-2.64,3.32-5.49,6.45-8.13,9.76-.85,1.07,.76,2.69,1.77,1.7,3.48-3.4,19.26-17.44,9.63-21.7-4.2-1.86-10.53-.28-14.63,1.07-6.43,2.1-11.83,5.68-15.76,11.18-.19,.27,.16,.61,.42,.4h0Z"/><path class="cls-1" d="M177.24,254.52c.98-.79,4.62-3.64,6.02-3.04,2.39,1.02,.5,4.64-.1,5.88-1.49,3.05-4.47,6.08-6.56,8.71-4.17,5.23-9.82,10.02-13.18,15.75-.51,.87,.4,1.73,1.25,1.2,5.35-3.35,9.59-9.41,13.52-14.28,3.3-4.09,9.11-9.48,10.34-14.75,2.08-8.97-9.59-4.02-12.56-1.05-.91,.9,.23,2.43,1.28,1.59h0Z"/><path class="cls-1" d="M188.17,272.64c5.22-5.49,10.29-11.37,16.04-16.3,3.19-2.74,6.63-5.26,10.4-7.15,1.61-.81,14.48-5.8,11.93,.9-.5,1.31,1.53,2.12,2.03,.8,2.37-6.29-4.09-7.37-8.8-6.02-13.6,3.9-23.92,16.73-31.72,27.68-.06,.08,.05,.15,.12,.09h0Z"/><path class="cls-1" d="M228.2,252.25c5.95-.95,12.17-1.1,18.11,.05,3.12,.61,6.14,1.56,9.03,2.88-.57-.26,13.37,7.21,7.87,8.9-1.45,.45-1.24,2.66,.05,3.15,2.08,.79,15.24,7.08,9.34,11.3-.99,.71,.01,2.08,1.04,1.73,10.16-3.44-5.49-14.32-9.13-16.2l-.39,3.28c10.1-1.87,.12-11.29-4.01-13.56-10.08-5.52-21.48-6.67-32.34-3.05-.86,.29-.45,1.67,.43,1.53h0Z"/><path class="cls-1" d="M182.5,277.9c8.3-3.24,17.5,3.49,24.13,7.84,5.14,3.37,10.53,9.75,16.25,11.83,4.74,1.72,10.24-2.24,6.36-6.89-1.01-1.21-3.26,0-2.47,1.49-3.25,1.23-5.87,.69-7.86-1.61l-2.01-1.57c-2.03-1.54-4.11-3.03-6.23-4.45-3.64-2.44-7.41-4.72-11.29-6.75-5.98-3.12-11.53-4.62-17.55-.99-.65,.39,.01,1.37,.67,1.11h0Z"/><path class="cls-1" d="M228.39,291.82c1.42,5.83,11.44,9.23,16.51,10.43,2.29,.54,6.16,1.68,7.67-.93,1.43-2.47-.75-4.76-2.91-5.62-1.04-.41-2.14,.93-1.34,1.81,.89,.44,1.06,1.02,.52,1.73-.04,.94-.51,1.17-1.41,.67-.94,.1-2.22-.43-3.11-.67-2.11-.56-4.16-1.31-6.13-2.26-3.1-1.49-6.2-4.75-9.57-5.41-.13-.03-.27,.11-.24,.25h0Z"/><path class="cls-1" d="M249.64,296.73c5.28,1.54,10.57,2.47,16.07,2.53,.84,0,1.43-.68,1.13-1.51-1.74-4.76-6.72-10.13-12.24-9.79-1.3,.08-1.34,1.92-.28,2.37,2.11,.91,4.2,1.24,6.12,2.63,2.01,1.46,3.44,3.37,4.41,5.64l.85-1.51c-5.33,.22-10.69,.08-15.98-.66-.16-.02-.23,.23-.07,.28h0Z"/><path class="cls-1" d="M254.6,289.07c-.17-.27,5.83-.65,6.85-.43s2.24,.61,3.31,.88c3.03,.74,6.1,1.23,9.2,1.63,2.83,.36,9.5,2.34,11.86-.22,4.96-5.37-11.89-10.26-14.15-11.27l.04,2.43c1.68-.79,3.01-1.38,4.4-2.59,.63-.54,.21-1.69-.67-1.54-1.81,.3-3.1,.93-4.78,1.72-1.06,.5-1,1.96,.04,2.43,2.52,1.14,5.04,2.29,7.56,3.43,.42,.19,3.74,1.36,3.78,1.71,.24,1.94-2.75,1.61-3.64,1.66-5.49,.3-12.05-1.63-17.41-2.7-1.95-.39-6.13-2.07-7.56,.27-.79,1.3-.43,2.2,.85,2.92,.22,.12,.43-.1,.3-.31h0Z"/><path class="cls-1" d="M186.35,234.11c-22.79,9.3-28.64,39.22-41.05,57.98-.69,1.05,.65,2.53,1.67,1.6,18.04-16.45,16.51-45.63,40.19-57.71,1.16-.59,.42-2.37-.81-1.87h0Z"/><path class="cls-1" d="M135.32,133.24c2.4,7.8,4.99,15.54,8.15,23.08,.37,.88,1.62,.3,1.33-.58-2.51-7.76-5.56-15.31-8.82-22.79-.19-.44-.8-.15-.67,.29h0Z"/><path class="cls-1" d="M134.09,119.36c3.98,7.96,5.54,16.8,8.41,25.15,.19,.56,1.04,.28,.97-.27-1.06-8.99-5.38-16.92-9.14-24.99-.07-.16-.32-.05-.24,.11h0Z"/><path class="cls-1" d="M139.87,125.86c1.24,3.91,2.12,8.33,3.96,12,.11,.21,.46,.14,.42-.12-.7-4.06-2.64-8.16-3.97-12.05-.09-.27-.48-.09-.4,.17h0Z"/><path class="cls-1" d="M139.26,115.45c2.31,6.77,4.21,13.92,7.15,20.44,.26,.57,1.29,.34,1.11-.31-1.92-6.94-5.03-13.69-7.59-20.42-.17-.44-.82-.15-.67,.29h0Z"/><path class="cls-1" d="M134.48,96.26c5.91,8.81,9.57,18.17,12.76,28.22,.25,.78,1.56,.41,1.39-.39-2.26-10.36-7.34-19.79-13.59-28.29-.28-.38-.82,.07-.57,.46h0Z"/><path class="cls-1" d="M142.88,98.57c1.72,5.01,3.07,10.43,5.37,15.19,.3,.63,1.44,.4,1.25-.35-1.31-5.19-3.77-10.26-5.69-15.25-.24-.62-1.14-.21-.93,.4h0Z"/><path class="cls-1" d="M145.25,91.24c1.32,4.47,2.24,9.46,4.2,13.68,.37,.79,1.71,.49,1.53-.43-.94-4.63-3.18-9.23-4.8-13.66-.23-.63-1.11-.21-.93,.4h0Z"/><path class="cls-1" d="M147.55,74.92c1.19,5.62,1.89,11.71,3.98,17.07,.18,.47,.88,.24,.83-.23-.53-5.69-2.64-11.42-4.09-16.94-.12-.44-.82-.36-.72,.1h0Z"/><path class="cls-1" d="M149.3,66.56c1,5.21,1.86,10.47,3.12,15.63,.11,.45,.78,.37,.72-.1-.67-5.26-1.75-10.47-2.69-15.69-.13-.74-1.29-.57-1.15,.16h0Z"/><path class="cls-1" d="M150.79,55.63c1,6.61,1.72,13.33,3.33,19.81,.25,.99,1.66,.82,1.58-.22-.5-6.66-1.93-13.27-3.05-19.86-.2-1.2-2.06-.94-1.87,.26h0Z"/><path class="cls-1" d="M145.6,165.39c6.73-14.25,13.75-28.72,19.67-43.32,.3-.74-.82-1.42-1.26-.7-8.21,13.34-14.61,28.74-19.35,43.64-.2,.63,.67,.97,.95,.37h0Z"/><path class="cls-1" d="M147.14,147.38c2.66-8.32,6.53-15.89,10.33-23.7,.36-.74-.81-1.39-1.26-.7-4.76,7.24-7.79,15.68-10.15,23.97-.2,.71,.85,1.15,1.08,.43h0Z"/><path class="cls-1" d="M147.61,131.58c4.76-9.18,10.66-17.47,16.7-25.83,.45-.62-.45-1.24-.94-.69-6.89,7.77-12.05,16.87-16.44,26.25-.2,.43,.46,.68,.68,.27h0Z"/><path class="cls-1" d="M148.88,118.8c5.97-7.66,12.54-14.84,18.48-22.5,.39-.51-.36-1.27-.83-.8-6.86,6.89-12.75,14.85-18.58,22.61-.45,.6,.48,1.28,.94,.69h0Z"/><path class="cls-1" d="M153.07,107.52c4.52-6.95,9.72-13.36,14.5-20.13,.32-.45-.3-1.11-.73-.7-6.06,5.77-10.86,12.63-15.41,19.62-.71,1.09,.92,2.31,1.64,1.21h0Z"/><path class="cls-1" d="M153.94,95.48c5.23-5.93,10.91-11.7,15.67-18.02,.34-.45-.31-1.12-.73-.7-5.59,5.66-10.5,12.13-15.64,18.2-.36,.43,.34,.93,.7,.52h0Z"/><path class="cls-1" d="M154.7,86.85c4.99-6.73,11.19-12.74,15.93-19.59,.32-.46-.28-1.08-.73-.7-6.25,5.35-11.19,13.08-15.9,19.77-.32,.46,.37,.97,.7,.52h0Z"/><path class="cls-1" d="M157.35,75.72c4.73-5,10.56-9.93,14.37-15.67,.22-.34-.19-.77-.52-.5-5.39,4.35-9.76,10.63-14.32,15.82-.25,.29,.22,.61,.47,.34h0Z"/><path class="cls-1" d="M163.52,63.19c2.53-2.6,5.07-5.2,7.6-7.79,.22-.22-.09-.53-.31-.3-2.5,2.63-5,5.26-7.5,7.89-.11,.12,.09,.32,.21,.2h0Z"/><path class="cls-1" d="M111.86,190.81c7.36,4.77,13.11,10.67,19.41,16.67,.37,.35,.89-.25,.6-.63-5.1-6.73-12.6-12.06-19.75-16.4-.24-.14-.5,.2-.26,.35h0Z"/><path class="cls-1" d="M115.01,187.11c4.92,4.63,9.69,9.55,14.86,13.88,.31,.26,.79-.23,.5-.52-4.76-4.82-10.07-9.18-15.1-13.71-.21-.19-.46,.16-.26,.35h0Z"/><path class="cls-1" d="M110.05,176.22c5.38,4.77,10.61,10.08,16.39,14.35,.32,.24,.78-.21,.5-.52-4.9-5.34-10.76-10.01-16.12-14.89-.62-.56-1.4,.5-.77,1.06h0Z"/><path class="cls-1" d="M108.36,169.04c5.73,4.85,11.51,11.06,17.99,14.84,.4,.23,.94-.22,.6-.63-4.83-5.81-11.96-10.51-17.73-15.38-.71-.6-1.57,.57-.86,1.17h0Z"/><path class="cls-1" d="M97.13,153c9.23,6.31,17.47,13.68,26.36,20.39,.45,.34,1.12-.31,.7-.73-7.84-7.76-17.56-14.06-26.8-20.01-.23-.15-.49,.19-.26,.35h0Z"/><path class="cls-1" d="M104.69,152.48c5.12,4.06,10.13,8.42,15.48,12.18,.39,.27,.78-.28,.43-.59-4.92-4.31-10.33-8.16-15.48-12.18-.37-.29-.8,.3-.43,.59h0Z"/><path class="cls-1" d="M101.25,142.6c5.58,5.19,10.98,10.97,17.02,15.61,.32,.25,.78-.21,.5-.52-5.17-5.64-11.42-10.55-17.09-15.68-.35-.32-.77,.27-.43,.59h0Z"/><path class="cls-1" d="M100.13,138.77c4.36,2.86,8.72,5.72,13.08,8.59,.55,.36,1.15-.46,.6-.82-4.36-2.86-8.72-5.72-13.08-8.59-.55-.36-1.15,.46-.6,.82h0Z"/><path class="cls-1" d="M97.9,130.49c4.62,3.26,9.22,7.28,14.25,9.86,.39,.2,.64-.38,.35-.63-4.2-3.7-9.65-6.51-14.34-9.58-.23-.15-.49,.19-.26,.35h0Z"/><path class="cls-1" d="M97.83,122.63c3.99,3.83,7.86,7.93,12.08,11.5,.19,.16,.47-.13,.3-.31-3.78-4.04-8.05-7.7-12.08-11.5-.18-.17-.48,.14-.3,.31h0Z"/><path class="cls-1" d="M105.71,107.33c.18,3.39,.36,6.79,.55,10.18,0,.09,.15,.07,.14-.02-.18-3.39-.36-6.79-.55-10.18,0-.09-.15-.07-.14,.02h0Z"/><path class="cls-1" d="M109.27,114.86c-.01,3.91-.03,7.83-.05,11.74,0,.37,.58,.44,.58,.07-.03-3.92-.07-7.84-.1-11.76,0-.28-.43-.33-.43-.05h0Z"/><path class="cls-1" d="M113.8,124.63c-1.57,5.5-2.57,11.22-1.68,16.92,.05,.32,.56,.33,.58,0,.34-5.64,.56-11.19,1.94-16.7,.12-.48-.7-.69-.84-.21h0Z"/><path class="cls-1" d="M117.02,128.6c-.62,5.15-1.45,10.27-1.41,15.46,0,.56,.73,.66,.87,.1,1.21-5.04,1.57-10.22,2.14-15.37,.11-1.03-1.46-1.22-1.59-.19h0Z"/><path class="cls-1" d="M118.64,135.1c-.25,4.95-.65,9.91-.6,14.87,.01,1,1.62,.94,1.73-.02,.55-4.84,.64-9.74,.89-14.61,.07-1.3-1.95-1.55-2.02-.24h0Z"/><path class="cls-1" d="M122.23,146.11c-1.08,8.17-1.95,16.49-1.26,24.72,.06,.73,1.26,.73,1.3-.01,.45-8.2,.41-16.36,1.26-24.55,.09-.84-1.19-.99-1.3-.16h0Z"/><path class="cls-1" d="M126.88,159.96c-1.04,7.55-1.67,15.61,.02,23.1,.13,.56,.87,.43,.86-.12-.1-7.68-.7-15.18,.13-22.86,.07-.65-.92-.77-1.01-.12h0Z"/><path class="cls-1" d="M131.28,163.83c-1.08,9.72-2.29,19.92-1.16,29.67,.07,.57,.96,.57,1.01,0,.89-9.8,.61-19.66,1.59-29.49,.09-.93-1.34-1.11-1.44-.17h0Z"/><path class="cls-1" d="M133.94,172.73c-.69,9.26-1.39,18.84-.45,28.1,.08,.8,1.43,.82,1.44-.01,.13-9.33-.41-18.62,.02-27.96,.03-.65-.96-.78-1.01-.12h0Z"/><path class="cls-1" d="M148.43,165.37c-.02,3.57-.03,7.15-.05,10.72,0,.64,.99,.78,1.01,.12,.11-3.56,.23-7.13,.34-10.69,.03-.84-1.3-.99-1.3-.16h0Z"/><path class="cls-1" d="M151.82,163.47c.1,3.55,.21,7.11,.31,10.66,.02,.65,1.14,.65,1.15-.01,.09-3.56,.18-7.11,.26-10.67,.03-1.26-1.77-1.25-1.73,.02h0Z"/><path class="cls-1" d="M155.57,156.69c.13,3.81,.26,7.63,.39,11.44,.02,.74,1.28,.73,1.3-.01,.11-3.81,.22-7.63,.33-11.44,.04-1.46-2.07-1.46-2.02,.02h0Z"/><path class="cls-1" d="M160.55,142.58c-.16,6.34-.66,12.72,.1,19.02,.1,.83,1.33,.79,1.44-.01,.87-6.2,.51-12.51,.48-18.77,0-1.28-1.99-1.57-2.02-.24h0Z"/><path class="cls-1" d="M166.47,141.72c.85,4.46,.63,8.84,1.11,13.31,.06,.6,.91,.54,1.01,0,.83-4.34-.14-9.2-1.11-13.44-.14-.63-1.13-.51-1.01,.14h0Z"/><path class="cls-1" d="M172.45,141.86c-.08,3.13-.16,6.27-.24,9.4,0,.37,.57,.44,.58,.07,.08-3.13,.16-6.27,.24-9.4,0-.37-.57-.44-.58-.07h0Z"/><path class="cls-1" d="M175.93,139.47c-.03,2.88-.06,5.76-.09,8.63,0,.46,.7,.56,.72,.09,.13-2.87,.25-5.73,.38-8.6,.03-.66-1-.77-1.01-.12h0Z"/><path class="cls-1" d="M180.85,125.61c-.03,2.98-.06,5.96-.08,8.94-.02,2.61-.33,5.35,.16,7.92,.12,.65,1.04,.64,1.15-.01,.47-2.58,.14-5.31,.09-7.93-.06-2.98-.11-5.96-.17-8.93-.01-.65-1.15-.65-1.15,.01h0Z"/><path class="cls-1" d="M187.31,121.95c-.38,3.31-.76,6.63-1.15,9.94-.05,.47,.65,.55,.72,.09,.48-3.3,.96-6.6,1.43-9.91,.09-.65-.94-.77-1.01-.12h0Z"/><path class="cls-1" d="M142.6,195.6c4.37-2.56,8.74-5.13,13.12-7.69,.45-.26,.08-.89-.37-.62-4.32,2.65-8.64,5.29-12.97,7.94-.21,.13,.01,.49,.22,.37h0Z"/><path class="cls-1" d="M143.71,190.25c6.03-2.74,12.06-5.47,18.08-8.21,.6-.27,.19-1.21-.4-.93-6.01,2.78-12.02,5.56-18.03,8.34-.51,.24-.17,1.03,.35,.8h0Z"/><path class="cls-1" d="M145.21,184.63c7.23-2.7,14.85-4.97,21.81-8.31,.69-.33,.24-1.3-.46-1.07-7.33,2.37-14.42,5.96-21.52,8.97-.26,.11-.09,.5,.17,.4h0Z"/><path class="cls-1" d="M154.86,177.93c6.03-2.59,12.2-4.71,18.56-6.34,.9-.23,.71-1.67-.2-1.44-6.5,1.62-12.82,3.71-19,6.31-.95,.4-.31,1.88,.64,1.47h0Z"/><path class="cls-1" d="M159.06,170.87c6.75-2.24,13.73-3.77,20.44-6.09,.47-.16,.25-.92-.23-.83-6.95,1.27-13.82,3.97-20.44,6.39-.35,.13-.12,.65,.23,.53h0Z"/><path class="cls-1" d="M168.07,162.59c5.14-1.95,11.13-3.43,15.83-6.29,.49-.3,.09-1.15-.45-1.03-5.36,1.17-10.73,4.25-15.79,6.38-.61,.26-.21,1.17,.4,.93h0Z"/><path class="cls-1" d="M174.69,156.03c4.86-1.78,10.79-3.08,15.14-5.88,.51-.33,.08-1.09-.45-1.03-5.14,.61-10.58,3.45-15.44,5.18-1.14,.41-.39,2.15,.75,1.74h0Z"/><path class="cls-1" d="M182.57,145.9c5.86-2.18,12.98-3.78,18.25-7.15,.49-.31,.09-1.13-.45-1.03-6.13,1.18-12.42,4.93-18.15,7.38-.52,.22-.18,1,.35,.8h0Z"/><path class="cls-1" d="M190.86,134.57c4.49-1.55,9.5-2.72,13.71-4.9,.54-.28,.36-1.28-.31-1.11-4.65,1.18-9.21,3.63-13.63,5.48-.35,.15-.12,.65,.23,.53h0Z"/><path class="cls-1" d="M199.16,126.89c2.36-.77,4.72-1.53,7.07-2.3,.35-.12,.12-.66-.23-.53-2.34,.81-4.68,1.62-7.02,2.43-.27,.09-.09,.49,.17,.4h0Z"/><path class="cls-1" d="M194.54,117.95c-1.27,4.71-2.69,9.41-3.65,14.2-.08,.4,.57,.57,.7,.18,1.47-4.66,2.49-9.45,3.65-14.2,.1-.4-.59-.58-.7-.18h0Z"/><path class="cls-1" d="M106,281.02c.7-2.91,1.3-5.84,1.76-8.8,.4-2.62,1.05-5.48,.66-8.12-.16-1.13-1.64-.98-1.87,.02-.63,2.67-.38,5.66-.62,8.41s-.62,5.58-1.08,8.35c-.13,.76,.98,.85,1.16,.14h0Z"/><path class="cls-1" d="M103,271.38c2.3-5.92,3.92-12.07,3.8-18.46-.01-.75-1.23-.71-1.3,.01-.57,6.19-1.17,12.29-2.91,18.28-.08,.26,.3,.43,.41,.16h0Z"/><path class="cls-1" d="M101.55,260.06c1.64-4.35,3.57-10.01,2.95-14.71-.11-.86-1.27-.76-1.44,.01-.49,2.23-.42,4.62-.82,6.89-.43,2.49-1.09,4.93-1.91,7.32-.27,.79,.92,1.27,1.22,.48h0Z"/><path class="cls-1" d="M99.66,250.91c2.69-7.54,4.88-15.31,4.88-23.38,0-1.02-1.38-1.22-1.59-.19-1.59,7.69-2.56,15.48-4.51,23.09-.2,.79,.93,1.3,1.22,.48h0Z"/><path class="cls-1" d="M97.19,237.56c1.35-4.88,2.93-10.17,3.01-15.26,.01-.85-1.11-.98-1.3-.16-1.15,4.99-1.53,10.15-2.69,15.17-.13,.56,.82,.81,.98,.25h0Z"/><path class="cls-1" d="M94.27,230.9c.58-3.49,1.15-6.97,1.73-10.46,.08-.46-.64-.55-.72-.09-.63,3.48-1.25,6.96-1.88,10.44-.1,.55,.77,.66,.87,.1h0Z"/><path class="cls-1" d="M72.16,183.93c1.04,3.95,1.62,7.94,1.74,12.02,.01,.37,.6,.29,.58-.08-.27-4.08-.99-8.06-2.18-11.97-.02-.08-.16-.04-.14,.04h0Z"/><path class="cls-1" d="M74.64,186.84c.65,3.86,.91,8.11,2.14,11.82,.13,.4,.83,.31,.83-.12,0-3.91-1.08-8.02-1.67-11.88-.13-.83-1.44-.65-1.3,.18h0Z"/><path class="cls-1" d="M79.08,188.36c.79,4.36,.83,8.68,1.12,13.08,.04,.58,.96,.56,1.01,0,.36-4.4-.49-8.89-1.55-13.15-.09-.36-.64-.29-.58,.08h0Z"/><path class="cls-1" d="M84.03,193.61c.44,4.26,.89,8.53,1.33,12.79,.08,.75,1.23,.58,1.15-.16-.45-4.26-.89-8.53-1.33-12.79-.08-.75-1.23-.58-1.15,.16h0Z"/><path class="cls-1" d="M84.67,200.61c.68,5.71-.47,11.36,.09,17,.04,.44,.68,.49,.84,.1,2.07-5.25,.75-11.86-.5-17.16-.06-.27-.47-.22-.43,.06h0Z"/><path class="cls-1" d="M89.42,208.46c.12,2.52,.23,5.04,.35,7.56,.02,.47,.73,.36,.72-.1-.07-2.53-.14-5.05-.21-7.58-.02-.56-.89-.44-.86,.12h0Z"/><path class="cls-1" d="M60.39,184.05c3.88,4.36,7.07,8.45,12.86,10.32,.45,.14,.69-.47,.27-.68-4.65-2.25-10.21-5.14-12.91-9.78-.1-.17-.35,0-.23,.14h0Z"/><path class="cls-1" d="M66.55,197.55c3.03,2.11,6.24,3.88,9.64,5.34,.26,.11,.42-.3,.16-.41-3.41-1.36-6.64-3.05-9.71-5.06-.08-.05-.16,.06-.09,.12h0Z"/><path class="cls-1" d="M67.22,203.73c4.31,2.6,8.55,5.55,13.06,7.78,.52,.26,.97-.56,.49-.88-4.18-2.78-8.86-4.98-13.27-7.4-.29-.16-.56,.33-.28,.5h0Z"/><path class="cls-1" d="M64.68,207.99c3.71,2.46,7.41,4.93,11.12,7.39,3.32,2.21,6.56,4.8,10.45,5.91,.5,.14,1.11-.44,.67-.91-2.68-2.79-6.2-4.36-9.56-6.18-4.13-2.24-8.26-4.47-12.39-6.71-.29-.16-.55,.32-.28,.5h0Z"/><path class="cls-1" d="M71.3,220.09c2.79,2.31,5.8,4.29,9.06,5.88,2.87,1.4,6.38,3.18,9.65,2.82,.64-.07,.99-1.09,.36-1.44-2.71-1.52-5.98-1.8-8.89-2.91-3.42-1.31-6.6-3.07-9.59-5.17-.54-.38-1.11,.4-.6,.82h0Z"/><path class="cls-1" d="M90.36,211.23c-.03,2.47-.06,4.94-.08,7.41-.02,2.01-.29,4.06,.26,6,.24,.84,1.4,.46,1.53-.22,.39-2.02-.12-4.22-.32-6.26-.22-2.31-.45-4.63-.67-6.94-.04-.4-.72-.41-.72,0h0Z"/><path class="cls-1" d="M78.97,232.9c3.11,3.35,8.19,7.46,12.97,7.72,.74,.04,1.01-.94,.32-1.26-2.14-.99-4.5-1.36-6.64-2.45-2.31-1.17-4.37-2.67-6.26-4.43-.24-.22-.62,.18-.4,.42h0Z"/><path class="cls-1" d="M85.83,245.48c1.46,.49,2.93,.97,4.39,1.46,1.3,.43,2.73,1.16,4.1,1.19,.53,.01,.95-.7,.41-1.05-1.16-.74-2.73-.95-4.06-1.31-1.49-.41-2.99-.82-4.48-1.23-.62-.17-1.01,.74-.37,.95h0Z"/><path class="cls-1" d="M68.56,238.39c6.54,9.24,17.02,17.86,28.62,19.39,.9,.12,1.24-1.21,.39-1.54-11.19-4.33-20.74-8.69-28.78-18.04-.12-.14-.33,.03-.23,.18h0Z"/><path class="cls-1" d="M73.87,265.37c6.67,6.08,16.29,11.84,25.64,11.44,.71-.03,.86-1.21,.17-1.4-4.31-1.17-8.71-1.76-12.9-3.36-4.55-1.74-8.69-4.22-12.47-7.27-.37-.3-.77,.28-.43,.59h0Z"/><path class="cls-1" d="M84.92,267.4c2.24,1.28,4.56,2.37,7.01,3.2,2.17,.73,4.71,1.69,7.02,1.25,.52-.1,.57-.75,.12-.98-2.12-1.04-4.65-1.12-6.9-1.83s-4.49-1.66-6.61-2.78c-.65-.34-1.27,.77-.63,1.14h0Z"/><path class="cls-1" d="M82.41,258.99c4.41,3.2,10.07,6.94,15.55,7.82,1.12,.18,1.37-1.36,.46-1.82-2.38-1.2-5.03-1.88-7.46-3.04-2.63-1.25-5.12-2.73-7.52-4.38-.92-.63-1.95,.74-1.03,1.41h0Z"/><path class="cls-1" d="M146.29,281.7c.5,1.66,1.01,3.32,1.51,4.99,.08,.27,.49,.09,.4-.17-.55-1.64-1.1-3.29-1.64-4.93-.06-.18-.32-.06-.27,.12h0Z"/><path class="cls-1" d="M146.83,274.9c.55,3.81,1.48,7.5,2.79,11.11,.22,.61,1.17,.21,.93-.4-1.37-3.5-2.37-7.1-3-10.81-.08-.46-.79-.36-.72,.1h0Z"/><path class="cls-1" d="M147.66,255.35c.42,8.93,1.44,17.8,4.62,26.19,.14,.38,.77,.21,.69-.19-1.59-8.72-3.5-17.29-4.16-26.15-.06-.75-1.19-.58-1.15,.16h0Z"/><path class="cls-1" d="M151.45,257.67c.39,6.03,.83,12.66,2.83,18.4,.17,.47,.89,.24,.83-.23-.78-6.14-2.3-12.08-2.8-18.29-.05-.56-.9-.43-.86,.12h0Z"/><path class="cls-1" d="M154.77,255.06c.5,5.03,.5,10.48,1.67,15.39,.11,.44,.85,.52,.87,0,.14-5.09-.98-10.46-1.53-15.52-.07-.65-1.07-.51-1.01,.14h0Z"/><path class="cls-1" d="M157.54,249.87c.35,4.67,.21,9.76,1.22,14.34,.15,.68,1.25,.77,1.3-.01,.32-4.74-.58-9.81-.93-14.55-.08-1.03-1.66-.8-1.58,.22h0Z"/><path class="cls-1" d="M162.58,246.33c-.24,3.55-.77,7.23-.64,10.78,.02,.42,.67,.39,.72,0,.46-3.5,.26-7.19,.35-10.72,0-.28-.41-.34-.43-.05h0Z"/><path class="cls-1" d="M166.83,242.41c-.32,3.21-.65,6.42-.97,9.64-.05,.47,.7,.55,.72,.09,.18-3.23,.36-6.46,.54-9.69,.01-.19-.27-.22-.29-.03h0Z"/><path class="cls-1" d="M169.25,241.05l-.96,7.32c-.09,.65,.91,.77,1.01,.12l1.1-7.3c.11-.74-1.06-.88-1.16-.14h0Z"/><path class="cls-1" d="M156.29,280.27c3.81-1.84,7.68-4.16,10.56-7.3,.34-.37-.25-.9-.63-.6-3.34,2.62-6.48,5.11-10.34,6.97-.59,.28-.19,1.22,.4,.93h0Z"/><path class="cls-1" d="M158.57,272.3c3.51-1.75,7.03-3.51,10.54-5.26,.59-.29,.17-1.25-.4-.93-3.46,1.89-6.91,3.77-10.37,5.66-.32,.18-.11,.7,.23,.53h0Z"/><path class="cls-1" d="M162.8,267.5c3.7-1.63,7.21-3.58,10.55-5.85,.54-.37-.1-1.15-.64-.79-3.29,2.18-6.74,4.03-10.38,5.57-.69,.29-.22,1.37,.46,1.07h0Z"/><path class="cls-1" d="M165.77,260.1c2.87-1.15,6.63-2.66,8.69-5.07,.28-.32-.15-.86-.53-.66-1.28,.68-2.34,1.72-3.53,2.54-1.53,1.05-3.14,1.97-4.8,2.78-.25,.12-.09,.51,.17,.4h0Z"/><path class="cls-1" d="M169.71,252.35c2.62-.78,5-1.98,7.2-3.6,.45-.33-.11-1.03-.55-.68-2.08,1.66-4.37,2.9-6.88,3.75-.36,.12-.12,.64,.23,.53h0Z"/><path class="cls-1" d="M197.23,271.92c5-7.81,11.45-13.51,18.06-19.82,.71-.68,.04-2.15-.97-1.6-8.13,4.4-14.12,12.76-17.97,20.94-.24,.52,.57,.98,.88,.49h0Z"/><path class="cls-1" d="M203.67,267.27c4.21-3.94,8.91-7.2,13.29-10.93,.47-.4,0-1.33-.6-.99-5.1,2.98-9.12,7.24-12.91,11.72-.11,.12,.09,.31,.21,.2h0Z"/><path class="cls-1" d="M208.6,268.59c3.98-4.06,8.37-7.25,12.98-10.54,.39-.28-.01-.98-.45-.74-4.91,2.68-9.27,6.52-13.17,10.49-.45,.46,.18,1.26,.64,.79h0Z"/><path class="cls-1" d="M215.27,267.64c2.44-2.1,4.99-4.04,7.72-5.75s5.77-2.86,8.42-4.65c.67-.45-.03-1.3-.67-1.11-5.9,1.7-11.61,6.79-15.93,10.95-.33,.32,.09,.88,.46,.57h0Z"/><path class="cls-1" d="M223.49,264.96c4.72-2.47,9.96-4.63,14.33-7.68,.55-.38,0-1.24-.6-.99-4.86,2.11-9.41,5.42-13.97,8.13-.31,.19-.11,.71,.23,.53h0Z"/><path class="cls-1" d="M227.61,266.47c4.99-3.58,10.35-5.55,15.8-8.18,.5-.24,.31-1.06-.27-.97-5.99,.94-11.68,4.42-16.53,7.9-.84,.6,.17,1.85,1,1.25h0Z"/><path class="cls-1" d="M232.38,267.26c4.28-1.68,9.03-3.02,13.03-5.27,.26-.15,.19-.65-.16-.56-4.47,1.17-8.85,3.51-13.11,5.3-.35,.14-.12,.67,.23,.53h0Z"/><path class="cls-1" d="M204.01,273.76c2.71,3.39,5.41,6.78,8.12,10.16,.12,.15,.34-.04,.23-.18-2.71-3.39-5.41-6.78-8.12-10.16-.12-.15-.34,.04-.23,.18h0Z"/><path class="cls-1" d="M206.53,273.19c1.69,1.9,3.39,3.8,5.08,5.7,1.49,1.67,2.88,3.59,4.69,4.92,.49,.36,1.32-.2,.99-.79-2.23-4.01-6.28-7.56-9.29-11.02-.8-.91-2.29,.28-1.47,1.19h0Z"/><path class="cls-1" d="M211.23,272.98c3.33,3.75,6.52,7.73,10.2,11.14,.38,.35,.88-.24,.6-.63-2.93-4.02-6.48-7.62-9.78-11.34-.56-.63-1.58,.19-1.02,.82h0Z"/><path class="cls-1" d="M215.95,270.82c5.07,4.57,8.44,9.85,12.66,15.09,.36,.45,1.09,0,.86-.52-2.6-6.08-7.86-11.3-12.74-15.63-.63-.56-1.4,.5-.77,1.06h0Z"/><path class="cls-1" d="M222.4,270.91c4.5,4.36,7.76,9.34,11.66,14.17,.55,.68,1.78,0,1.36-.82-2.8-5.48-7.61-10.19-12.12-14.29-.54-.49-1.43,.42-.9,.94h0Z"/><path class="cls-1" d="M228.25,271.29c4.02,3.83,6.32,8.27,9.49,12.72,.56,.78,1.62-.01,1.36-.82-1.69-5.1-6.09-9.52-10.08-12.96-.65-.56-1.37,.49-.77,1.06h0Z"/><path class="cls-1" d="M236.79,274.59c2.48,4.3,4.68,9.16,7.89,12.96,.47,.56,1.4,.02,1.11-.67-1.95-4.58-5.29-8.73-8.01-12.88-.35-.54-1.32,.03-.99,.6h0Z"/><path class="cls-1" d="M245.56,278.82c1.5,2.42,3.01,4.84,4.51,7.26,.21,.34,.83-.02,.62-.37-1.46-2.44-2.93-4.89-4.39-7.33-.32-.54-1.08-.1-.74,.45h0Z"/><path class="cls-1" d="M242.78,271.14c2.67-1.12,5.33-2.23,8-3.35,.61-.25,.21-1.16-.4-.93-2.72,.98-5.45,1.97-8.17,2.95-.88,.32-.29,1.7,.58,1.33h0Z"/><path class="cls-1" d="M251.4,272.74c2.18-.35,4.35-.71,6.53-1.06,.28-.05,.22-.48-.06-.43-2.18,.35-4.35,.71-6.53,1.06-.28,.05-.22,.48,.06,.43h0Z"/><path class="cls-1" d="M257.73,278.31c2.35-.2,4.69-.41,7.04-.61,.66-.06,.51-1.05-.14-1.01-2.35,.16-4.71,.31-7.06,.47-.75,.05-.58,1.22,.16,1.15h0Z"/></g></svg>