<?xml version="1.0" encoding="UTF-8"?><svg id="Calque_1" xmlns="http://www.w3.org/2000/svg" viewBox="0 0 362.54 389.18"><defs><style>.cls-1{fill:#f2f2f2;}.cls-2{opacity:.25;}</style></defs><g class="cls-2"><path class="cls-1" d="M339.06,356.33c-41.01-58.58-107.64-89.06-159.77-135.89-28.51-25.61-51.6-56.3-67.61-91.18-7.95-17.32-14.15-35.43-18.38-54.02-4.16-18.3-4.52-36.68-7.32-55.08-.48-3.16-5.31-3.02-5.62,.18-3.19,33.82,8.6,72.26,21.65,103.11,14.27,33.72,35.08,64.71,61.22,90.38,54.14,53.15,128.08,82.06,175.44,142.81,.19,.25,.55-.05,.38-.31h0Z"/><path class="cls-1" d="M261.88,178.79c-26.06-.93-52.62-.91-78.31-5.79-12.72-2.42-25.29-5.88-37.14-11.16-12.04-5.37-21.71-13.41-32.87-20.1-1.01-.6-2.18,.51-1.44,1.51,13.44,18.13,40.1,27.61,61.29,32.5,29.06,6.71,58.99,5.49,88.48,3.35,.18-.01,.17-.31-.01-.32h0Z"/><path class="cls-1" d="M56.33,313.35c26.71-10.15,41.77-35.98,48-62.75,4.11-17.66,4.65-35.89,5.02-53.94,.41-19.88,2-39.36,3.39-59.14,.17-2.35-3.49-3.49-4.21-1.02-8.65,29.41-3.13,61.82-5.68,92.03-2.86,33.91-15.3,66.99-47.4,82.91-1.22,.61-.39,2.4,.87,1.92h0Z"/><path class="cls-1" d="M312.14,301.77c9.27,3.34,14-6.19,9.58-13.95s-16.83-10.18-24.56-12.96c-13.75-4.94-27.5-9.87-41.25-14.81-2.46-.88-3.94,2.93-1.47,3.77,10.37,3.57,20.73,7.13,31.1,10.7,5.18,1.78,10.37,3.55,15.55,5.35l5.18,1.78c7.89,1.54,9.96,7.78,6.2,18.71-.81-.16-1.1,1.13-.34,1.4h0Z"/><path class="cls-1" d="M310.96,302.18c2.81,1.57,5.58,3.22,8.45,4.69,1.51,.77,3.09,1.39,4.59,2.16,1,.42,1.94,.95,2.81,1.58,.68,2.78,.31,3.8-1.12,3.07-.84-.3-1.63,.38-1.53,1.24,.52,4.65,7.69,1.77,6.92-2.78-.49-2.9-3-4.44-5.46-5.62-4.55-2.18-9.31-3.78-14.05-5.47-.66-.24-1.28,.76-.62,1.13h0Z"/><path class="cls-1" d="M324.14,315.64c2.7,3.01,6.89,4.73,9.9,7.57,1.69,1.59,3.3,3.24,4.75,5.07,.79,1,1.51,2.03,2.19,3.12,.45,.61,.82,1.27,1.12,1.97,1.42,2.44,.32,4.78-3.29,7.01-1.76-.65-2.82,2.06-1.06,2.72,7.62,2.83,9.27-6.62,6.65-11.69-1.91-3.7-4.8-7.14-7.94-9.83-3.05-2.62-7.91-6.33-12.1-6.33-.19,0-.37,.22-.21,.39h0Z"/><path class="cls-1" d="M337.24,341.13c1.94,4.37,5.34,7.94,7.28,12.44,2.33,5.42,3.46,10.98,3.4,16.88l1.51-1.23c-8.63-1.75-14.56-6.15-21.35-11.38-1.05-.81-2.31,.62-1.55,1.63,5.22,6.94,14.34,10.81,22.62,12.49,.68,.14,1.5-.54,1.51-1.23,.1-9.73-3.24-25.23-13-30.03-.26-.13-.52,.19-.41,.44h0Z"/><path class="cls-1" d="M326.81,358.05c.13,.74,.46,1.76,.47,2.5,.09,11.98-6.31,7.34-10.19,5.22-4.01-2.19-7.82-4.71-11.36-7.61-7.21-5.91-12.17-13.28-18.19-20.25-.97-1.12-2.74-.02-2.19,1.35,5.6,13.77,21.41,27.04,35.4,31.76,9.68,3.26,12.86-6.92,6.18-13.05-.05-.05-.14,.01-.13,.08h0Z"/><path class="cls-1" d="M285.04,337.8l1.06,3.07-7.66,1.95c-1.15-.48-2.85-3.94-3.61-5-2.51-3.53-5.01-7.06-7.5-10.61-4.37-6.24-8.38-13.6-14.34-18.42-1.01-.82-2.22,.42-1.82,1.48,2.98,8.02,9.76,14.93,14.99,21.6,3.71,4.72,7.78,12.52,13.26,15.42,7.43,3.93,10.9-4.58,6.03-9.74-.18-.2-.52-.01-.41,.25h0Z"/><path class="cls-1" d="M250.37,309.99c3.43,14.1,6.46,28.38,8.51,42.75l1.81-1.47c-2.22-1.12-4.44-2.25-6.65-3.39-1.65-.85-2.78,1.92-1.06,2.72,2.25,1.04,4.5,2.1,6.74,3.16,.94,.45,1.96-.52,1.81-1.47-2.39-14.58-5.76-28.53-10.84-42.4-.06-.17-.35-.09-.31,.09h0Z"/><path class="cls-1" d="M251.41,348.92c.26,2.7,.33,5.4,.12,8.11s-.07,8.23-4.34,6.23-5.52-8.23-8.78-11.34c-.52-.5-1.5-.37-1.58,.47-.32,3.68,2.26,7.07,4.54,9.76,1.93,2.27,4.91,5.67,8.23,5.4,7.21-.58,4.4-14.66,3.56-18.93-.22-1.13-1.87-.84-1.76,.29h0Z"/><path class="cls-1" d="M236.06,353.26c-3.58,3.64-6.13,3.88-7.66,.73-1.46-2.14-2.82-4.33-4.09-6.59-1.73-3.2-3.13-6.58-4.33-10.02-2.69-7.68-4.23-15.72-5.78-23.69-.5-2.55-4.53-1.89-4,.67,2.97,14.06,6.02,33.23,17.37,43.37,2.44,2.18,6.4,4.2,9.34,1.69,2.49-2.13,1.73-4.68-.74-6.28-.07-.05-.17,.04-.11,.12h0Z"/><path class="cls-1" d="M210.44,312.55c-6.26,10.02-5.78-11.74-5.85-16.43-.14-8.9-1.24-17.71-3.43-26.34-4.07-16.06-11.46-32.73-23.22-44.64-1.33-1.35-3.29,.26-2.26,1.84,12.28,18.94,22.25,36.79,24.54,59.78,1.17,11.75-2.9,25.65,6.65,34.6,.66,.62,1.81,.14,2.1-.61,1.06-2.48,1.88-5.04,2.46-7.67,.15-.57-.62-1.13-.99-.54h0Z"/><path class="cls-1" d="M242.38,223.63c9.27,.62,9.09-10.25,1.76-13.94-8.3-4.18-21.2,2.82-29.41,4.53-13.53,2.81-27.03,3.37-40.76,4.3-1.55,.1-1.45,2.64,.09,2.73,10.39,.61,20.85-.3,31.13-1.85,5.07-.76,10.13-1.71,15.14-2.84,3.34-.76,6.65-1.61,9.95-2.54,6.08-3.24,10.03-.54,11.86,8.08-.69,.34-.58,1.49,.25,1.54h0Z"/><path class="cls-1" d="M242.76,224.54c7.73,.66,15.6-.53,23.28-1.42,4.61-.53,9.45-1.42,14.1-1.21,6.02,.27,10.84,.82,6.15,7.07-.5,.67,.3,1.82,1.09,1.34,2.79-1.68,3.97-3.02,5.67-6,.4-.7,.48-1.81-.35-2.29-6.46-3.71-13.08-3.72-20.37-2.96-9.81,1.01-20.27,1.74-29.67,4.85-.31,.1-.2,.59,.1,.62h0Z"/><path class="cls-1" d="M286.17,229.63c5.49,.22,10.98,.81,16.4,1.7,2.14,.35,6.01,.69,7.86,1.69,2.85,.63,3.35,2.92,1.5,6.87-.98,.36-1.93,.77-2.86,1.23-.8,.37-.36,1.42,.42,1.38,5.19-.21,11.29-5.14,6.23-10.07-2.65-2.58-7.06-3.18-10.5-3.86-6.36-1.26-12.67-1.48-19.12-1.19-1.27,.06-1.2,2.2,.07,2.25h0Z"/><path class="cls-1" d="M308.8,242.39c5.7,1.14,11.22,2.81,16.57,5.07,1.53,.65,9.29,3.41,9.65,5.02l-3.32,7.74c-1.71,.4-3.44,.75-5.18,1.03-12.41,2.17-24.07,.83-36.46,.14-1.03-.06-1.56,1.56-.45,1.87,9.14,2.6,19.19,2.53,28.62,1.67,4.76-.43,19.6-.57,22.22-6.13,5.22-11.13-25.31-17.09-31.49-17.86-.95-.12-1.05,1.27-.15,1.45h0Z"/><path class="cls-1" d="M289.04,263.28c1.3,3.21,.38,3.94-2.76,2.2l-3.1-.71-10.85-2.48c-6.72-1.53-13.44-3.07-20.16-4.6-1.91-.44-2.26,2.67-.32,3.06,8.29,1.65,16.59,3.31,24.88,4.96,4.07,.81,13.15,4.71,17.08,1.97,4.81-3.36-1.38-6.01-4.9-5.19-.51,.12-.39,.87,.13,.8h0Z"/><path class="cls-1" d="M258.45,262.43c-3.81-.63-6.94-2.18-10.29-4l-.86,2.21c2.47,1.03,4.97,1.53,7.65,1.5,.97,0,1.6-1.2,.72-1.86-2.33-1.74-5.14-2.32-7.95-1.52-1.03,.29-1.04,1.69,.06,1.89,2.41,.44,4.82,.88,7.24,1.33,1.09,.2,1.3-1.35,.43-1.78-2.59-1.29-5.27-1.94-8.16-1.98-.87-.01-1.35,1.03-.62,1.61,3.37,2.65,7.21,4.2,11.49,4.47,1.62,.1,1.81-2.17,.26-2.48-3.76-.74-7.39-2.03-10.74-3.91l-1.01,2.62c1.87,.38,3.73,.77,5.6,1.15,1.61,.33,2.78,.83,4.29,.12,.54-.25,.79-1.03,.35-1.5-1.14-1.24-2.2-1.22-3.87-1.53-2.02-.38-4.05-.75-6.07-1.13-1.75-.33-2,2.09-.68,2.8,3.75,2.01,7.66,3.29,11.87,3.86l.26-2.48c-3.9,0-7.55-1.1-10.7-3.43l-.62,1.61c2.73,.06,5.24,.7,7.67,1.93l.43-1.78c-2.41-.46-4.82-.92-7.23-1.38l.06,1.89c2.37-.65,4.5-.25,6.41,1.31l.72-1.86c-2.48-.08-4.75-.61-7-1.66-1.2-.56-2.29,1.37-1.13,2.06,3.4,2.03,7.42,2.75,11.34,2.75,.52,0,.61-.72,.08-.81h0Z"/><path class="cls-1" d="M245.95,300.46c1.3,2.48,2.89,4.82,4,7.39s1.52,5.42,2.84,7.98c.38,.74,1.39,.53,1.54-.25,1.06-5.5-3.25-12.7-7.89-15.52-.25-.15-.65,.08-.49,.4h0Z"/><path class="cls-1" d="M248.3,363.66c-10.2-38.05-20.15-78.97-36.89-114.7-.45-.96-2.12-.54-1.84,.56,9.53,38.58,25.39,76.64,37.96,114.37,.14,.43,.89,.21,.77-.23h0Z"/><path class="cls-1" d="M336.47,252.68c-27.24-1.63-54.23-3.64-81.06-8.91-14.61-2.87-29.07-6.43-43.35-10.66-11.74-3.48-23.24-8.79-35.32-10.75-1-.16-1.63,1.37-.73,1.9,20.9,12.31,49.91,16.5,73.62,20.86,28.55,5.25,57.75,8.61,86.81,7.89,.2,0,.25-.31,.03-.32h0Z"/><path class="cls-1" d="M126.73,151.67c8.83,4.76,17.62,1.8,25.7-3.23,6.27-3.9,11.9-8.99,18.77-11.87l6.19-1.93c6.75-.35,8.13,1.15,4.14,4.48-1.01,2.84-5.19,6.03-7.15,8.13-1.12,1.2,.94,3.18,2.1,1.99,4.15-4.27,18.25-15.91,5.92-18.05-21.52-3.73-32.18,25.67-55.21,19.27-.81-.23-1.2,.81-.47,1.21h0Z"/><path class="cls-1" d="M175.88,149.39c5.16-1.17,10.13-2.61,15.18-4.19,2.07-.65,16.59-5.89,13.55-.04-.22,.43,.26,.98,.71,.87,3.59-.86,5.84-6.05,1.23-7.46-3.7-1.13-9.73,2.3-13.06,3.38-6.07,1.96-12.05,3.92-17.94,6.36-.59,.24-.31,1.22,.33,1.08h0Z"/><path class="cls-1" d="M205.33,146.09c1.86-.61,3.07-.93,5.03-.58,1.56-.26,2.28,.4,2.14,1.98,.77,.99,.71,1.75-.18,2.29-1.13,1.76-4.27,3.33-5.92,4.54-3.53,2.6-7.96,5.01-10.74,8.42-.38,.47,.2,1.04,.69,.85,4.36-1.62,8.32-5.32,12.12-7.97,2.48-1.73,6.75-3.71,7.37-7.07,.37-2.02-.75-3.8-2.47-4.78-2.81-1.59-6-.25-8.65,.99-.87,.41-.27,1.62,.6,1.33h0Z"/><path class="cls-1" d="M196.68,162.22c9.33,.25,18.61-1.21,27.87-2.19,5.65-.6,12.28-1.9,17.77,.1s2.04,2.9-.71,6.28c-.34,.42,.2,1.14,.69,.85,2.61-1.53,4.81-3.24,7.17-5.17,.8-.65,.51-1.78-.34-2.2-7-3.41-13.82-3.29-21.45-2.47-10.32,1.11-20.95,1.99-31,4.63-.08,.02-.09,.16,0,.16h0Z"/><path class="cls-1" d="M241.88,165.92c5.72,.55,11.5,.7,17.15,1.89l8.04,2.28-1.08,15.66c-1.86,2.98-9.9,3.77-12.85,4.48-13.18,3.17-26.56,2.77-39.84,.52-1.35-.23-1.53,1.83-.22,2.09,12.68,2.55,25.65,2.67,38.33-.07,7.9-1.71,19.92-4.67,24.11-12.53,8.08-15.15-25.96-16.43-33.65-14.64-.17,.04-.18,.3,.01,.32h0Z"/><path class="cls-1" d="M212.17,191.24c7.62,11.85-21.42,5.72-25.96,4.27-7.59-2.42-15.02-5.77-22.07-9.47-15.77-8.29-28.42-19.67-41.77-31.23-1.35-1.17-3.17,.88-2.1,2.21,12.15,15.11,29.41,26.39,46.9,34.42,15.68,7.2,33.95,14.09,50.72,6.93,.66-.28,.86-1.18,.41-1.73-1.71-2.07-3.42-4.15-5.13-6.22-.54-.66-1.45,.13-1.01,.82h0Z"/><path class="cls-1" d="M107.41,186.53c10.48,21.34,43.27,24.19,46.73,49.68l2.07-1.68c-3.29-.92-4.14-1.13-7.48-1.83-1.44-.3-1.97,2.02-.6,2.5,2.27,.88,4.6,1.61,6.97,2.19,1.12,.31,2.24-.44,2.07-1.68-3.6-26.05-35.59-30.24-48.52-49.94-.46-.7-1.59,.03-1.23,.76h0Z"/><path class="cls-1" d="M147.62,233.91c1.48,9.25,1.66,18.54-2.16,27.29-.58,1.34-1.68,4.65-2.91,5.35-4.66,2.63-6.15-2.97-7.14-5.41-1.78-4.37-3.27-8.85-5.05-13.22-.58-1.41-3.02-.73-2.61,.8,1.4,5.23,6.43,28.21,15.82,21.19,4.1-3.07,6.01-10.07,6.94-14.79,1.46-7.39,.94-14.59-2.27-21.4-.16-.33-.67-.18-.61,.19h0Z"/><path class="cls-1" d="M127.2,247.62c.23,1.38,1.01,6.47-.33,7.5-2.29,1.76-4.78-2.04-5.66-3.3-2.16-3.11-3.47-7.65-4.88-11.12-2.81-6.91-4.37-15-8.11-21.39-.57-.97-1.9-.55-1.84,.56,.33,7.02,3.91,14.45,6.5,20.92,2.18,5.44,4.24,14.02,8.69,18.08,7.58,6.91,9.13-7.12,7.87-11.63-.38-1.37-2.48-1.1-2.24,.37h0Z"/><path class="cls-1" d="M103.64,248.34c2.49,8.07,5.43,16.19,7.09,24.47,.92,4.59,1.49,9.3,1.27,14-.09,2-2.26,17.22-7.39,11.1-1-1.2-2.89,.33-1.89,1.53,4.82,5.73,9.39,.04,10.65-5.27,3.63-15.33-3.2-32.36-9.59-45.9-.05-.1-.18-.03-.15,.07h0Z"/><path class="cls-1" d="M101.62,298.35c-2.32,6.3-5.57,12.43-9.92,17.56-2.29,2.7-4.86,5.11-7.72,7.2,.56-.41-14.29,9.05-12.93,2.79,.36-1.66-1.91-2.65-3.09-1.67-1.9,1.59-15.19,10.95-16.07,2.91-.15-1.34-2.02-1.12-2.25,.07-2.2,11.75,16.91,2.48,20.72-.03l-2.97-2.17c-3.69,10.83,10.9,6.27,15.36,3.5,10.86-6.78,18.19-17.23,20.59-29.74,.19-1-1.37-1.34-1.72-.42h0Z"/><path class="cls-1" d="M101.62,239.98c-1.38,9.83-12.93,15.09-20.77,19.16-6.08,3.16-15.21,4.91-20.35,9.33-4.26,3.66-3.41,11.16,3.23,9.94,1.73-.32,1.79-3.17-.1-3.21,.57-3.82,2.52-6.08,5.85-6.75l2.62-1.1c2.61-1.13,5.18-2.34,7.72-3.62,4.36-2.21,8.63-4.62,12.72-7.29,6.29-4.1,10.77-8.68,10.53-16.5-.03-.85-1.33-.73-1.44,.05h0Z"/><path class="cls-1" d="M63.08,276.96c-6.44-1.8-15.2,6.08-19.13,10.35-1.78,1.93-4.99,5.07-3.28,7.96,1.62,2.73,5.04,1.87,7.05,.24,.97-.78,.26-2.58-1.03-2.28-.91,.63-1.57,.48-1.97-.44-.89-.56-.85-1.14,.12-1.74,.42-.97,1.63-1.92,2.34-2.66,1.69-1.75,3.54-3.32,5.54-4.72,3.14-2.19,7.99-3.43,10.47-6.34,.1-.11,.04-.33-.11-.37h0Z"/><path class="cls-1" d="M46.72,294.91c-4.38,4.28-8.16,8.92-11.23,14.23-.46,.81-.12,1.76,.85,1.92,5.57,.9,13.51-1,16.18-6.55,.63-1.3-1.13-2.35-2.15-1.57-2.03,1.55-3.5,3.4-5.89,4.5-2.51,1.16-5.15,1.5-7.89,1.21l1,1.64c2.69-5.3,5.76-10.43,9.36-15.16,.11-.14-.1-.35-.23-.22h0Z"/><path class="cls-1" d="M51.46,303.91c.36-.01-2.55,6.02-3.32,6.89s-1.82,1.84-2.66,2.74c-2.37,2.54-4.53,5.25-6.59,8.05-1.89,2.55-7.45,7.95-6.25,11.65,2.51,7.75,16.45-5.95,18.67-7.59l-2.38-1.29c-.14,2.06-.3,3.68,.11,5.69,.19,.91,1.53,1.13,1.86,.19,.69-1.92,.79-3.52,.94-5.58,.1-1.3-1.36-2.04-2.38-1.29-2.48,1.82-4.97,3.65-7.45,5.47-.42,.31-3.36,2.89-3.73,2.74-2.01-.82-.07-3.55,.37-4.44,2.7-5.49,8.15-10.82,12.11-15.43,1.45-1.68,5.36-4.82,3.85-7.49-.83-1.47-1.91-1.62-3.3-.77-.24,.15-.14,.47,.14,.46h0Z"/><path class="cls-1" d="M142.06,267.6c3.39-27.2-22.47-49.2-33.93-71.49-.64-1.24-2.81-.75-2.46,.75,6.14,26.49,35.31,40.92,34.13,70.51-.06,1.45,2.07,1.69,2.26,.23h0Z"/><path class="cls-1" d="M267.86,273.04c-8.88-1.92-17.82-3.63-26.86-4.67-1.05-.12-1.17,1.41-.17,1.61,8.91,1.8,17.91,2.95,26.94,3.86,.53,.05,.58-.7,.08-.81h0Z"/><path class="cls-1" d="M282.01,279.41c-9.9-.48-19.34-3.78-29.02-5.55-.65-.12-.84,.85-.26,1.09,9.31,3.87,19.37,4,29.25,4.75,.19,.01,.22-.29,.03-.29h0Z"/><path class="cls-1" d="M272.54,281.49c-4.47-.93-9.25-2.49-13.81-2.7-.26-.01-.38,.37-.11,.47,4.33,1.53,9.36,1.89,13.87,2.71,.31,.06,.35-.42,.05-.48h0Z"/><path class="cls-1" d="M282.99,286.56c-7.83-1.44-15.82-3.5-23.75-4.2-.7-.06-1.04,1.07-.3,1.25,7.79,1.91,16.04,2.58,23.97,3.76,.52,.08,.59-.71,.08-.81h0Z"/><path class="cls-1" d="M304.24,292.39c-11.78,.93-22.87-.61-34.37-2.99-.89-.18-1.25,1.29-.38,1.56,11.3,3.45,23.22,3.67,34.88,2.23,.52-.06,.38-.84-.13-.8h0Z"/><path class="cls-1" d="M297.41,299.28c-5.8-1.06-11.8-2.71-17.69-3.07-.78-.05-1.17,1.18-.34,1.4,5.75,1.55,12.02,1.93,17.91,2.79,.73,.11,.83-1,.12-1.13h0Z"/><path class="cls-1" d="M303.23,305.59c-5.06-1.16-10.4-2.98-15.58-3.38-.97-.07-1.41,1.4-.42,1.72,5.01,1.61,10.69,1.95,15.88,2.79,.73,.12,.81-.97,.12-1.13h0Z"/><path class="cls-1" d="M317.83,316.72c-6.11-1.9-12.4-4.55-18.75-5.44-.56-.08-.71,.72-.23,.94,5.82,2.58,12.53,3.66,18.68,5.26,.49,.13,.8-.6,.29-.75h0Z"/><path class="cls-1" d="M325,322.98c-5.61-1.87-11.19-3.9-16.88-5.49-.49-.14-.79,.56-.29,.75,5.47,2.22,11.13,4.01,16.71,5.94,.79,.27,1.26-.94,.47-1.21h0Z"/><path class="cls-1" d="M334.8,330.39c-6.96-2.63-13.88-5.6-21.06-7.57-1.1-.3-1.7,1.17-.65,1.66,6.74,3.15,13.94,5.36,20.95,7.87,1.28,.46,2.04-1.48,.77-1.96h0Z"/><path class="cls-1" d="M231.03,265.49c10.17,14.31,20.4,29.01,31.35,42.72,.56,.7,1.82-.02,1.37-.85-8.48-15.25-19.94-29.86-31.84-42.59-.5-.53-1.3,.12-.88,.72h0Z"/><path class="cls-1" d="M247.68,276.81c6.63,7.12,11.87,15,17.39,22.96,.52,.75,1.79-.03,1.37-.85-4.43-8.57-10.98-16.11-17.75-22.93-.58-.58-1.58,.2-1.01,.82h0Z"/><path class="cls-1" d="M262.76,285.88c6.32,9.63,11.16,19.88,15.97,30.31,.36,.77,1.45,.24,1.18-.54-3.79-10.93-9.81-20.9-16.53-30.28-.31-.43-.91,.08-.63,.51h0Z"/><path class="cls-1" d="M274.48,294.08c4.19,9.97,7.57,20.27,11.78,30.22,.28,.66,1.43,.35,1.23-.37-2.95-10.42-7.48-20.48-11.83-30.38-.34-.76-1.5-.23-1.18,.54h0Z"/><path class="cls-1" d="M283.15,304.3c4.28,8.18,7.68,16.73,11.64,25.06,.27,.56,1.24,.32,1.08-.33-2.3-9.03-6.34-17.43-10.65-25.67-.67-1.29-2.75-.36-2.07,.94h0Z"/><path class="cls-1" d="M294.38,311.72c2.91,8.32,5.41,16.98,8.96,25.05,.25,.57,1.26,.3,1.08-.33-2.44-8.52-6.06-16.82-9.15-25.12-.22-.59-1.09-.18-.89,.4h0Z"/><path class="cls-1" d="M302.34,317.16c3.82,8.51,6.28,17.81,10.34,26.15,.27,.56,1.21,.32,1.08-.33-1.79-8.99-6.6-18-10.53-26.22-.27-.56-1.14-.17-.89,.4h0Z"/><path class="cls-1" d="M311.72,325.8c2.28,7.32,3.89,15.67,7.38,22.5,.2,.4,.85,.23,.77-.23-1.29-7.61-5-15.27-7.56-22.53-.14-.4-.71-.12-.59,.27h0Z"/><path class="cls-1" d="M320.52,338.63c1.14,3.88,2.28,7.75,3.43,11.63,.1,.33,.57,.2,.46-.14-1.19-3.86-2.39-7.72-3.58-11.58-.05-.17-.36-.08-.31,.09h0Z"/><path class="cls-1" d="M224.73,218.85c-8.64,4.54-17.51,6.92-26.77,9.76-.54,.17-.24,.99,.28,.92,9.32-1.28,18.58-5.67,26.69-10.24,.27-.15,.08-.59-.2-.44h0Z"/><path class="cls-1" d="M226.61,223.94c-7.18,2.25-14.56,4.21-21.59,6.87-.42,.16-.21,.89,.23,.77,7.28-2,14.41-4.77,21.56-7.19,.3-.1,.09-.53-.2-.44h0Z"/><path class="cls-1" d="M239.9,225.06c-7.57,2.63-15.58,4.8-22.88,8.1-.41,.18-.22,.88,.23,.77,7.86-1.84,15.59-5,23.25-7.54,.89-.29,.28-1.64-.6-1.33h0Z"/><path class="cls-1" d="M247.79,227.32c-7.84,2.92-17.02,5.15-24.22,9.38-.45,.26-.3,1.03,.28,.92,8.27-1.52,16.73-5.89,24.61-8.83,.98-.36,.31-1.84-.67-1.48h0Z"/><path class="cls-1" d="M269.48,225.17c-11.16,5.52-22.82,9.51-34.18,14.49-.57,.25-.3,1.26,.33,1.08,11.81-3.39,23.23-9.39,34.06-15.12,.27-.15,.08-.58-.2-.44h0Z"/><path class="cls-1" d="M265.87,232.8c-6.74,2.76-13.7,5.25-20.27,8.39-.48,.23-.15,.91,.33,.74,6.87-2.43,13.55-5.58,20.27-8.39,.48-.2,.15-.94-.33-.74h0Z"/><path class="cls-1" d="M277.35,234.84c-8.08,2.59-16.65,4.68-24.45,8.02-.41,.18-.22,.87,.23,.77,8.3-1.94,16.47-5.34,24.55-8.05,.5-.17,.16-.89-.33-.74h0Z"/><path class="cls-1" d="M281.68,235.84c-5.16,2.67-10.31,5.34-15.47,8.02-.65,.33-.18,1.37,.47,1.03,5.16-2.67,10.31-5.34,15.47-8.02,.65-.33,.18-1.37-.47-1.03h0Z"/><path class="cls-1" d="M290.93,238.19c-5.69,2.71-12.1,4.98-17.34,8.47-.41,.27,.02,.82,.42,.68,5.89-2.07,11.59-5.83,17.12-8.71,.28-.14,.08-.58-.2-.44h0Z"/><path class="cls-1" d="M298.6,242.41c-5.9,1.79-11.98,3.31-17.76,5.46-.26,.1-.13,.53,.14,.46,5.99-1.46,11.87-3.62,17.76-5.46,.26-.08,.12-.54-.14-.46h0Z"/><path class="cls-1" d="M309.17,258.4c-3.4-1.67-6.79-3.35-10.19-5.02-.09-.05-.15,.11-.06,.15,3.4,1.67,6.79,3.35,10.19,5.02,.09,.05,.15-.11,.06-.15h0Z"/><path class="cls-1" d="M299.92,257.76c-3.79-2.15-7.59-4.3-11.38-6.45-.36-.2-.75,.32-.38,.52,3.82,2.11,7.65,4.21,11.47,6.32,.27,.15,.56-.24,.29-.39h0Z"/><path class="cls-1" d="M287.95,256.83c-4.49-4.52-9.5-8.61-15.52-10.85-.33-.12-.63,.36-.31,.56,5.29,3.41,10.56,6.64,15.16,10.99,.4,.38,1.05-.31,.66-.7h0Z"/><path class="cls-1" d="M282.35,257.79c-4.66-3.41-9.18-7.01-14.24-9.8-.55-.3-1.04,.35-.57,.78,4.24,3.93,9.06,7.1,13.76,10.45,.93,.67,1.98-.76,1.05-1.44h0Z"/><path class="cls-1" d="M275.15,255.82c-4.67-2.94-9.27-6.04-14.11-8.69-.98-.54-1.8,1.06-.93,1.69,4.4,3.17,9.11,5.94,13.7,8.83,1.23,.78,2.58-1.05,1.34-1.83h0Z"/><path class="cls-1" d="M262.5,253.31c-7.34-5.5-14.95-10.88-23.32-14.7-.75-.34-1.4,.82-.7,1.27,7.72,4.91,15.67,9.33,23.16,14.61,.77,.54,1.61-.61,.86-1.18h0Z"/><path class="cls-1" d="M246.51,250.27c-6.77-5.13-14.25-10.14-22.45-12.58-.61-.18-.9,.61-.35,.91,7.51,4.09,15.13,7.6,22.13,12.59,.6,.42,1.25-.47,.67-.92h0Z"/><path class="cls-1" d="M240.35,252.44c-8.85-6.35-18.1-13.08-28.19-17.31-.59-.25-1.07,.62-.54,.99,9.03,6.21,18.77,11.31,27.77,17.63,.85,.6,1.81-.7,.96-1.31h0Z"/><path class="cls-1" d="M230.25,250.16c-8.61-5.72-17.54-11.62-27.05-15.76-.83-.36-1.58,.94-.77,1.41,8.99,5.22,18.31,9.76,27.15,15.27,.61,.38,1.28-.51,.67-.92h0Z"/><path class="cls-1" d="M229.5,268.25c-3.46-1.97-6.93-3.93-10.39-5.9-.62-.35-1.3,.53-.67,.92,3.4,2.05,6.8,4.11,10.2,6.16,.81,.49,1.67-.72,.86-1.18h0Z"/><path class="cls-1" d="M229.5,272.57c-3.51-1.84-7.02-3.67-10.53-5.51-.65-.34-1.25,.75-.62,1.13,3.41,2.03,6.81,4.05,10.22,6.08,1.2,.71,2.18-1.03,.93-1.69h0Z"/><path class="cls-1" d="M234.03,279.92c-3.77-1.95-7.55-3.91-11.32-5.86-.73-.38-1.4,.84-.7,1.27,3.64,2.19,7.29,4.38,10.93,6.57,1.4,.84,2.55-1.21,1.08-1.97h0Z"/><path class="cls-1" d="M245.03,292.45c-6.07-3.61-12-7.57-18.53-10.28-.86-.36-1.5,.86-.77,1.41,5.55,4.23,11.87,7.31,17.96,10.7,1.25,.69,2.61-1.08,1.34-1.83h0Z"/><path class="cls-1" d="M242.63,298.67c-4.8-1.61-8.93-4.21-13.53-6.18-.62-.26-1.01,.59-.54,.99,3.76,3.17,9.01,4.88,13.66,6.25,.69,.2,1.11-.82,.41-1.06h0Z"/><path class="cls-1" d="M239.24,304.4c-3-1.79-6-3.57-9-5.36-.36-.21-.74,.31-.38,.52,3,1.79,6,3.57,9,5.36,.36,.21,.74-.31,.38-.52h0Z"/><path class="cls-1" d="M239.66,309.08c-2.78-1.6-5.56-3.2-8.34-4.8-.44-.26-.93,.38-.48,.65,2.72,1.69,5.43,3.37,8.15,5.06,.62,.39,1.3-.56,.67-.92h0Z"/><path class="cls-1" d="M250.43,321.42c-2.88-1.65-5.76-3.3-8.63-4.95-2.52-1.45-5.02-3.24-7.79-4.16-.7-.24-1.19,.66-.62,1.13,2.25,1.86,5.09,3.03,7.65,4.41,2.92,1.57,5.85,3.14,8.77,4.71,.64,.34,1.25-.76,.62-1.13h0Z"/><path class="cls-1" d="M250.47,329.69c-3.01-2.18-6.02-4.36-9.03-6.53-.42-.31-.89,.34-.48,.65,2.95,2.27,5.89,4.53,8.84,6.8,.58,.45,1.26-.49,.67-.92h0Z"/><path class="cls-1" d="M203.32,246.11c.11,5.65,.21,11.29,.32,16.94,.01,.58,.82,.57,.8-.03-.21-5.64-.43-11.28-.64-16.93-.01-.27-.49-.26-.48,.02h0Z"/><path class="cls-1" d="M207.91,250.09c-.63,7.35-1.26,14.69-1.89,22.04-.06,.73,1.07,.85,1.13,.12,.58-7.35,1.15-14.7,1.73-22.06,.05-.62-.91-.73-.97-.1h0Z"/><path class="cls-1" d="M212.54,254.62c-1.32,8.49-3.27,17.14-3.82,25.71-.05,.84,1.13,.94,1.29,.13,1.7-8.41,2.08-17.26,3.02-25.79,.03-.31-.44-.36-.48-.05h0Z"/><path class="cls-1" d="M213.8,267.65c-.77,7.27-2.08,14.42-3.96,21.49-.26,1,1.23,1.6,1.51,.59,1.97-7.2,3.38-14.48,4.23-21.89,.13-1.14-1.65-1.33-1.77-.18h0Z"/><path class="cls-1" d="M218.36,275.58c-1.5,7.77-3.83,15.39-5.23,23.17-.1,.54,.76,.74,.94,.23,2.55-7.44,3.68-15.59,4.94-23.33,.07-.41-.57-.47-.64-.07h0Z"/><path class="cls-1" d="M221.49,288.84c-.91,6.05-2.74,12.69-2.52,18.8,.02,.64,1.06,.71,1.24,.13,1.79-5.84,1.73-12.74,2.41-18.81,.08-.73-1.02-.84-1.13-.12h0Z"/><path class="cls-1" d="M224.25,298.85c-.92,5.69-2.89,12.16-2.54,17.91,.04,.67,1.02,.68,1.24,.13,2.21-5.33,2.42-12.15,3.39-17.82,.23-1.33-1.88-1.55-2.09-.22h0Z"/><path class="cls-1" d="M229.8,312.02c-1.08,6.88-3.41,14.67-3.01,21.63,.04,.64,1.05,.71,1.24,.13,2.2-6.6,1.98-14.75,2.73-21.65,.07-.63-.87-.71-.97-.1h0Z"/><path class="cls-1" d="M236.28,326.26c-.94,5.2-2.54,10.71-2.72,15.99-.02,.68,1.05,1.05,1.25,.3,1.39-5.16,1.49-10.92,2.11-16.23,.05-.42-.57-.47-.64-.07h0Z"/><path class="cls-1" d="M239.21,338.51c-.54,2.71-1.08,5.42-1.62,8.12-.08,.41,.57,.48,.64,.07,.49-2.71,.98-5.43,1.46-8.14,.06-.31-.42-.35-.48-.05h0Z"/><path class="cls-1" d="M250.42,338.89c-3.89-3.81-7.67-7.75-11.8-11.28-.35-.3-.87,.25-.55,.58,3.72,3.97,7.83,7.57,11.8,11.28,.33,.31,.88-.26,.55-.58h0Z"/><path class="cls-1" d="M140.3,163.97c2.44,2.27,4.96,4.45,7.59,6.51,2.32,1.82,4.75,4.01,7.52,5.07,1.18,.45,1.84-1.06,1.01-1.83-2.25-2.07-5.29-3.46-7.83-5.19s-5.08-3.64-7.52-5.61c-.66-.53-1.36,.49-.77,1.05h0Z"/><path class="cls-1" d="M151.31,166.31c4.5,5.47,9.59,10.39,15.85,13.76,.73,.39,1.37-.81,.7-1.27-5.7-3.93-11.3-7.84-16.17-12.8-.22-.22-.58,.06-.38,.31h0Z"/><path class="cls-1" d="M163.1,171.08c3.33,3.97,7.78,8.92,12.68,10.89,.9,.36,1.43-.82,.77-1.41-1.9-1.7-4.26-2.93-6.25-4.55-2.19-1.78-4.2-3.75-6.07-5.85-.62-.7-1.74,.2-1.13,.92h0Z"/><path class="cls-1" d="M173.01,174.24c5.85,6.73,12.21,13.09,20.05,17.49,.99,.56,1.93-.67,1.05-1.44-6.6-5.73-13.64-10.92-19.97-16.97-.66-.63-1.77,.19-1.13,.92h0Z"/><path class="cls-1" d="M187.33,179.11c4.01,3.97,8.28,8.39,13.18,11.25,.81,.48,1.56-.54,.86-1.18-4.23-3.84-9.03-7.02-13.26-10.89-.47-.43-1.23,.36-.78,.82h0Z"/><path class="cls-1" d="M195.38,179.91c3.07,2.46,6.14,4.92,9.21,7.38,.41,.33,.88-.32,.48-.65-3.04-2.51-6.08-5.01-9.12-7.52-.48-.4-1.06,.39-.57,.78h0Z"/><path class="cls-1" d="M253.06,184.05c-4.4-1.14-8.59-2.76-12.62-4.86-.37-.19-.61,.42-.24,.6,4.11,1.97,8.37,3.43,12.82,4.41,.09,.02,.13-.13,.04-.16h0Z"/><path class="cls-1" d="M248.89,184.87c-4.1-1.48-8.37-3.54-12.65-4.37-.46-.09-.75,.64-.34,.88,3.8,2.13,8.38,3.33,12.46,4.85,.88,.33,1.41-1.04,.53-1.36h0Z"/><path class="cls-1" d="M244.99,188.35c-4.67-1.61-8.88-3.93-13.32-6.05-.58-.28-1.07,.63-.54,.99,4.08,2.75,8.91,4.37,13.62,5.66,.39,.11,.64-.47,.24-.6h0Z"/><path class="cls-1" d="M237.18,190.3c-4.38-1.89-8.77-3.79-13.15-5.68-.77-.33-1.24,.88-.47,1.21,4.38,1.89,8.77,3.79,13.15,5.68,.77,.33,1.24-.88,.47-1.21h0Z"/><path class="cls-1" d="M230.04,187.1c-5.91-2.45-10.77-6.65-16.56-9.18-.45-.2-.85,.39-.55,.76,3.97,4.88,11.11,7.19,16.94,8.88,.3,.09,.47-.33,.18-.45h0Z"/><path class="cls-1" d="M219.82,187.44c-2.51-1.26-5.02-2.52-7.54-3.78-.47-.24-.75,.52-.29,.75,2.49,1.31,4.98,2.62,7.48,3.93,.55,.29,.91-.63,.35-.91h0Z"/><path class="cls-1" d="M259.36,172.55c-6.35,1.4-12.06,2.26-17.04,6.87-.38,.36,.08,.93,.51,.63,4.72-3.29,10.56-7.11,16.54-7.2,.22,0,.19-.34,0-.29h0Z"/><path class="cls-1" d="M242.89,171.17c-3.7,1.8-7.18,3.95-10.44,6.44-.25,.19,.06,.57,.31,.38,3.18-2.57,6.58-4.79,10.21-6.67,.09-.05,.03-.19-.07-.15h0Z"/><path class="cls-1" d="M236.53,168.45c-4.87,2.77-10.05,5.28-14.68,8.44-.53,.36,.02,1.25,.59,.96,4.99-2.55,9.67-5.9,14.42-8.85,.31-.19-.02-.73-.34-.55h0Z"/><path class="cls-1" d="M233.78,163.66c-4.41,2.26-8.83,4.52-13.24,6.77-3.95,2.02-8.24,3.75-11.43,6.92-.41,.41-.18,1.32,.52,1.14,4.17-1.08,7.62-3.64,11.22-5.92,4.42-2.79,8.85-5.58,13.27-8.38,.31-.2-.01-.71-.34-.55h0Z"/><path class="cls-1" d="M218.41,163.49c-3.76,1.45-7.33,3.3-10.66,5.59-2.93,2.02-6.57,4.46-8,7.84-.28,.66,.52,1.55,1.2,1.14,2.96-1.81,5.01-4.82,7.68-7.04,3.13-2.6,6.58-4.74,10.25-6.49,.66-.32,.21-1.3-.47-1.03h0Z"/><path class="cls-1" d="M216.63,186.84c-2.38-1.37-4.77-2.75-7.15-4.12-1.94-1.12-3.79-2.49-5.98-3.02-.94-.23-1.21,1.1-.62,1.61,1.75,1.48,4.17,2.18,6.25,3.11,2.37,1.04,4.74,2.09,7.11,3.13,.41,.18,.79-.47,.39-.7h0Z"/><path class="cls-1" d="M201.78,163.96c-4.95,1.2-11.71,3.88-14.58,8.39-.44,.7,.36,1.49,1.05,1,2.13-1.54,3.78-3.63,6-5.11,2.4-1.6,4.98-2.79,7.72-3.66,.35-.11,.17-.7-.19-.61h0Z"/><path class="cls-1" d="M185.83,163.76c-1.27,1.16-2.54,2.31-3.81,3.47-1.13,1.03-2.62,2.02-3.39,3.34-.3,.5,.16,1.31,.79,.97,1.35-.72,2.41-2.14,3.48-3.22,1.21-1.23,2.43-2.45,3.64-3.68,.5-.51-.17-1.38-.72-.88h0Z"/><path class="cls-1" d="M202.13,150.86c-12.54,1.32-26.63,6.79-34.44,17.22-.61,.81,.5,1.87,1.28,1.22,10.3-8.51,19.75-15.41,33.21-18.12,.21-.04,.15-.34-.05-.32h0Z"/><path class="cls-1" d="M173.03,141.3c-9.54,3.16-20.39,9.37-25.1,18.66-.36,.7,.71,1.49,1.27,.92,3.49-3.54,6.46-7.5,10.3-10.7,4.17-3.47,8.84-6.13,13.86-8.15,.49-.2,.15-.9-.33-.74h0Z"/><path class="cls-1" d="M165.03,150.92c-2.46,1.48-4.79,3.14-6.93,5.07-1.9,1.71-4.21,3.66-5.04,6.13-.19,.56,.42,.97,.89,.65,2.16-1.49,3.63-3.9,5.54-5.71s4.06-3.45,6.31-4.9c.69-.44-.05-1.66-.76-1.23h0Z"/><path class="cls-1" d="M174.57,153.07c-5.51,2.54-12.24,6-16.08,10.83-.79,.99,.57,2.07,1.51,1.44,2.46-1.65,4.57-3.86,7.01-5.59,2.64-1.87,5.45-3.49,8.35-4.92,1.12-.55,.34-2.3-.8-1.77h0Z"/><path class="cls-1" d="M117.67,202.73c-1.89-.42-3.78-.83-5.67-1.25-.3-.07-.36,.42-.05,.48,1.89,.36,3.79,.73,5.68,1.09,.21,.04,.23-.28,.03-.32h0Z"/><path class="cls-1" d="M123.98,206.97c-4-1.54-8.09-2.65-12.31-3.35-.72-.12-.84,1.03-.12,1.13,4.15,.58,8.19,1.57,12.14,2.98,.49,.17,.78-.57,.29-.75h0Z"/><path class="cls-1" d="M142.53,218.44c-8.9-4.46-18.07-8.31-27.96-9.79-.45-.07-.62,.63-.19,.78,9.34,3.21,18.7,6.02,27.67,10.22,.76,.36,1.21-.84,.47-1.21h0Z"/><path class="cls-1" d="M138.2,220.85c-6.07-2.91-12.75-6.1-19.42-7.28-.55-.1-.72,.74-.23,.94,6.39,2.59,12.99,4.35,19.3,7.25,.57,.26,.91-.64,.35-.91h0Z"/><path class="cls-1" d="M138.93,225.5c-5.15-2.26-10.45-5.23-15.86-6.77-.49-.14-.97,.54-.46,.84,4.87,2.91,10.7,4.76,15.91,6.98,.67,.29,1.08-.76,.41-1.06h0Z"/><path class="cls-1" d="M142.45,231.02c-4.73-2.21-9.6-5.12-14.59-6.64-.74-.23-1.43,.79-.7,1.27,4.43,2.89,9.84,4.79,14.64,7.03,1.04,.49,1.68-1.18,.65-1.66h0Z"/><path class="cls-1" d="M143.15,237.84c-3.32-2.17-6.6-4.69-10.12-6.5-.42-.21-.74,.44-.39,.7,3.15,2.35,6.84,4.18,10.22,6.19,.26,.16,.55-.22,.29-.39h0Z"/><path class="cls-1" d="M144.64,244.1c-2.94-2.07-5.89-4.13-8.83-6.2-.43-.3-.92,.37-.48,.65,3.04,1.94,6.08,3.87,9.12,5.81,.17,.11,.36-.14,.19-.26h0Z"/><path class="cls-1" d="M144.64,247.2l-6.59-4.92c-.59-.44-1.25,.47-.67,.92l6.49,5.05c.66,.51,1.43-.55,.77-1.05h0Z"/><path class="cls-1" d="M113.62,213.22c-.3,4.71-.14,9.73,1.33,14.24,.17,.53,1,.25,.92-.28-.73-4.67-1.42-9.08-1.13-13.84,.05-.73-1.08-.85-1.13-.12h0Z"/><path class="cls-1" d="M120.11,219.79c-.21,4.37-.43,8.74-.64,13.11-.04,.73,1.12,.84,1.13,.12,.05-4.39,.11-8.77,.16-13.16,0-.41-.62-.49-.64-.07h0Z"/><path class="cls-1" d="M122.47,226.52c-.44,4.48-.46,8.95-.07,13.44,.06,.73,1.17,.53,1.12-.19-.32-4.39-.24-8.74,.24-13.12,.09-.83-1.21-.96-1.29-.13h0Z"/><path class="cls-1" d="M128.04,233.43c-.45,3.42-1.03,7.89,.19,11.2,.16,.44,.91,.33,.93-.15,.04-1.61-.4-3.21-.54-4.82-.19-2.06-.2-4.12-.09-6.18,.02-.31-.44-.36-.48-.05h0Z"/><path class="cls-1" d="M133.41,241.48c-.67,2.97-.81,5.94-.43,8.96,.08,.62,1.06,.46,.96-.16-.48-2.92-.43-5.82,.12-8.73,.08-.41-.55-.46-.64-.07h0Z"/><path class="cls-1" d="M99.39,257.55c4.86,9.11,6.87,18.49,9.41,28.35,.27,1.06,2.07,1.21,2.09-.07,.16-10.29-4.69-20.68-10.54-28.87-.37-.52-1.26,.02-.96,.59h0Z"/><path class="cls-1" d="M100.4,266.33c1.53,6.23,2.14,12.59,3.37,18.87,.13,.68,1.3,.72,1.28-.04-.11-6.58-2.06-12.8-4.34-18.92-.06-.17-.35-.09-.31,.09h0Z"/><path class="cls-1" d="M96.43,270.4c1.77,6.08,2.47,12.09,3.17,18.35,.06,.54,.96,.52,.96-.03,.07-6.23-1.27-12.56-3.01-18.51-.2-.69-1.32-.51-1.12,.19h0Z"/><path class="cls-1" d="M93.72,277.39c.7,3.52,1.2,7.05,1.37,10.64,.17,3.58-.37,7.17-.07,10.72,.08,.9,1.27,.68,1.44-.05,1.57-6.66-.26-14.98-1.94-21.45-.13-.5-.9-.39-.8,.13h0Z"/><path class="cls-1" d="M91.83,286.85c-.18,5.93-.94,12.2-.36,18.11,.07,.74,1.21,.67,1.28-.04,.6-5.87-.13-12.1-.28-18-.01-.4-.63-.49-.64-.07h0Z"/><path class="cls-1" d="M88.12,290.03c.75,6.8-.25,13.08-.67,19.81-.04,.62,.86,.88,1.09,.26,2.35-6.33,2.07-13.75,1.34-20.37-.13-1.14-1.88-.84-1.76,.29h0Z"/><path class="cls-1" d="M84.75,294.22c-.71,5.07-1.99,10.42-1.99,15.54,0,.33,.52,.54,.62,.15,1.3-4.98,1.41-10.51,2.01-15.62,.05-.42-.59-.48-.64-.07h0Z"/><path class="cls-1" d="M93.91,263.12c-4.77,.78-9.53,1.56-14.3,2.34-.21,.03-.15,.35,.05,.32,4.77-.78,9.53-1.56,14.3-2.34,.21-.03,.15-.35-.05-.32h0Z"/><path class="cls-1" d="M93.09,265.89c-2.77,.61-5.54,1.22-8.3,1.83-2.44,.54-5.06,.83-7.34,1.87-.62,.28-.53,1.39,.23,1.39,5.11,.02,10.77-1.97,15.77-3.01,1.32-.28,.98-2.37-.35-2.08h0Z"/><path class="cls-1" d="M90.74,270.56c-5.46,1.19-11.06,2.12-16.39,3.84-.54,.18-.24,.98,.28,.92,5.5-.65,10.94-2.14,16.35-3.32,.91-.2,.68-1.64-.24-1.44h0Z"/><path class="cls-1" d="M90.25,276.33c-7.2,2.44-14.17,2.82-21.56,4.06-.63,.11-.6,1.05,.04,1.12,7.32,.79,15.27-1.47,22.13-3.86,.89-.31,.28-1.63-.6-1.33h0Z"/><path class="cls-1" d="M86.66,282.54c-6.69,2-13.3,2.45-20.12,3.6-.96,.16-.97,1.72,.06,1.77,6.85,.27,14.05-1.83,20.49-3.98,.77-.26,.37-1.62-.42-1.38h0Z"/><path class="cls-1" d="M83.09,288.01c-5.92,1.82-11.48,1.63-17.53,2.28-1.06,.12-.87,1.58,.06,1.77,5.87,1.14,12.56-.72,18.08-2.72,.9-.33,.27-1.6-.6-1.33h0Z"/><path class="cls-1" d="M75.24,294.51c-5.53,.07-11.44-.45-16.88,.6-.8,.15-.79,1.35,.05,1.44,5.51,.61,11.36-.38,16.88-.76,.72-.05,.69-1.29-.04-1.28h0Z"/><path class="cls-1" d="M66.34,300.72c-3.17,.14-6.34,.28-9.51,.43-.45,.02-.43,.82,.03,.8,3.17-.09,6.34-.18,9.51-.27,.7-.02,.68-.99-.03-.96h0Z"/><path class="cls-1" d="M75.32,302.21c-.37,3.2-.74,6.4-1.11,9.6-.08,.73,1.01,.83,1.13,.12,.53-3.18,1.06-6.37,1.59-9.55,.17-1.02-1.49-1.21-1.61-.17h0Z"/><path class="cls-1" d="M69.06,309.71c-.84,2.31-1.69,4.61-2.53,6.92-.11,.29,.35,.47,.45,.18,.84-2.31,1.69-4.61,2.53-6.92,.11-.29-.35-.47-.45-.18h0Z"/><path class="cls-1" d="M60.2,312.82c-1.08,2.39-2.16,4.78-3.25,7.17-.3,.67,.74,1.06,1.06,.41,1.13-2.37,2.26-4.74,3.4-7.11,.36-.75-.86-1.23-1.21-.47h0Z"/></g></svg>