<?xml version="1.0" encoding="UTF-8"?><svg id="_5" xmlns="http://www.w3.org/2000/svg" viewBox="0 0 141.73 141.73"><defs><style>.cls-1{fill:#fff;}</style></defs><path class="cls-1" d="M33.08,31.49c.25,0,.5,.03,.74,.1,1.18,.78,3.26,6.52,4.08,8.15,4.08,8.15,9.43,15.92,15.56,20.87-3.26,2.8-6.98,5.28-9.42,9.78-4.08-2.41-11.06-2.87-17.19-3.26-1.91-4.17,.94-5.44,4.92-5.44s9.23,1.31,11.79,2.22c.3,.25,.61,.5,.9,.74v-.39c-.24-.11-.55-.23-.9-.35-6.36-5.32-13.69-13.52-18.73-21.3-.85-.85-2.09-2.02-1.66-3.65,0-1.08,.92-2.16,2.54-2.16,.24,0,.49,.02,.76,.07,2.02,0,3.26,3.26,4.5,5.35,2.02,2.02,3.26,4.04,4.89,5.68-1.24-2.02-2.02-4.04-3.69-6.52-.81-2.41-3.29-4.89-2.45-7.76,.34-1.06,1.88-2.12,3.37-2.12m31.92,26.58c7.12,0,9.53,6.08,13.01,10.7,11.06,16.37,22.93,33.53,34.8,50.29,2.02,2.87,5.32,6.13,5.32,8.61,.78,4.22-2.14,7.79-6.69,7.79-.23,0-.47,0-.71-.03-3.26-.46-6.52-4.11-9.39-5.74-4.5-3.26-58.51-38.87-58.93-47.81-.42-6.13,2.84-11.48,5.32-14.35,2.87-4.11,9.82-8.54,15.98-9.39,.45-.04,.89-.06,1.31-.06m-31.92-31.58h0c-3.52,0-6.92,2.27-8.04,5.33-1.77,.14-3.4,.84-4.64,2-1.25,1.17-2.03,2.76-2.2,4.43-.69,3.71,1.53,6.3,2.72,7.51,2.42,3.68,5.33,7.48,8.45,11.06-3.23,.41-5.56,1.7-6.95,3.85-1.07,1.67-1.96,4.5-.12,8.53l1.24,2.72,2.99,.19c3.77,.24,8.58,.55,12.04,1.45-.85,2.53-1.37,5.44-1.16,8.6,.28,5.2,5.06,13.34,57.13,48.91,1.86,1.27,3.33,2.28,3.86,2.66l.23,.16,.24,.14c.69,.39,1.59,1.09,2.54,1.83,2.43,1.89,5.19,4.03,8.63,4.51l.15,.02h.15c.37,.04,.74,.06,1.1,.06,3.66,0,7.02-1.51,9.22-4.15,2.08-2.49,2.96-5.81,2.46-9.15-.21-3.34-2.43-6.15-4.59-8.86-.6-.76-1.17-1.47-1.62-2.12-12.01-16.96-23.7-33.85-34.74-50.21l-.07-.11-.08-.1c-.57-.76-1.14-1.61-1.74-2.5-2.88-4.3-6.82-10.19-15.27-10.19-.58,0-1.18,.03-1.79,.09h-.1l-.1,.02c-2.53,.35-5.21,1.19-7.78,2.37-4.54-4.12-9.07-10.45-12.86-18.05-.15-.31-.49-1.12-.8-1.84-2-4.76-3.08-6.98-4.99-8.25l-.67-.44-.77-.21c-.67-.18-1.36-.28-2.07-.28h0Z"/></svg>